<?xml version="1.0" encoding="utf-8" ?><svg xmlns="http://www.w3.org/2000/svg" xmlns:xlink="http://www.w3.org/1999/xlink" width="1152" height="896" viewBox="0 0 1152 896"><defs><linearGradient id="gradient_0" gradientUnits="userSpaceOnUse" x1="533.69989" y1="193.47075" x2="891.59564" y2="621.96588"><stop offset="0" stop-color="#75B5DC"/><stop offset="1" stop-color="#79CFE3"/></linearGradient></defs><path fill="url(#gradient_0)" d="M395.371 101.436C411.64 90.5763 434.009 87.0099 453.18 87.672C459.634 88.2085 465.306 89.1496 471.692 90.197C485.534 93.2052 499.198 96.9813 512.62 101.508C517.816 103.058 527.408 105.439 531.97 107.165C542.015 109.48 554.502 112.613 564.601 114.037C570.72 115.185 576.887 116.062 583.083 116.667C586.052 116.978 591.894 117.238 594.46 118.079C593.03 118.519 592.138 118.739 590.674 119.038L590.913 119.601C598.305 122.511 599.656 122.875 602.814 130.159C603.215 131.084 603.606 132.014 603.989 132.946C605.001 129.215 606.114 125.604 608.488 122.469C609.472 122.146 612.785 121.03 613.582 121.005C620.635 120.783 620.136 123.104 625.375 117.829L626.994 116.466L626.382 114.997C636.451 113.404 646.394 111.714 656.314 109.33C690.662 101.075 716.697 91.368 751.929 101.243C763.464 104.365 774.339 109.551 784.025 116.55C807.805 133.817 823.74 159.833 828.316 188.861C836.645 241.073 814 295.246 795.94 343.134C793.234 350.307 790.476 357.706 788.192 365.018C784.542 376.47 781.709 388.167 779.715 400.021C778.985 404.283 777.791 414.876 776.992 418.325L776.845 418.85C776.463 438.268 776.553 447.122 779.332 466.446C782.511 481.919 785.695 495.44 791.284 510.264C806.49 552.262 830.488 585.915 830.256 632.522C830.056 638.611 829.055 648.299 827.459 654.219C824.889 661.987 822.167 670.134 818.216 677.307C809.044 693.956 791.998 709.348 774.996 717.786C740.025 735.142 699.391 732.341 663.337 720.374C658.981 718.918 654.651 717.387 650.347 715.783C649.363 674.018 648.025 632.263 646.332 590.521C646.321 573.227 644.714 552.562 644.105 534.869C646.308 534.299 650.735 530.612 652.754 529.044L648.976 522.936C646.819 520.353 646.191 519.096 644.586 516.108L643.578 517.015C643.187 516.516 642.772 515.9 641.972 516.095C601.943 525.856 564.229 524.22 523.608 516.837L521.222 516.073C519.603 509.764 522.552 472.098 522.543 462.5L522.452 453.299C519.096 453.388 515.399 453.629 512.073 453.402C486.53 451.656 491.103 424.388 492.35 407.061C459.778 407.475 433.842 414.21 403.491 426.582C399.117 428.365 383.731 437.385 381.077 437.733C383.572 421.213 384.602 400.811 380.721 384.49C369.403 336.891 336.21 310.328 341.69 257.249C342.397 251.582 342.222 242.04 342.673 235.957C344.634 209.444 344.005 184.257 350.979 158.43C358.08 135.36 374.479 113.687 395.371 101.436Z"/><path fill="#77D7E5" d="M395.371 101.436C411.64 90.5763 434.009 87.0099 453.18 87.672C459.634 88.2085 465.306 89.1496 471.692 90.197C485.534 93.2052 499.198 96.9813 512.62 101.508C517.816 103.058 527.408 105.439 531.97 107.165C542.015 109.48 554.502 112.613 564.601 114.037C570.72 115.185 576.887 116.062 583.083 116.667C586.052 116.978 591.894 117.238 594.46 118.079C593.03 118.519 592.138 118.739 590.674 119.038L590.913 119.601C598.305 122.511 599.656 122.875 602.814 130.159C603.215 131.084 603.606 132.014 603.989 132.946C605.001 129.215 606.114 125.604 608.488 122.469C609.472 122.146 612.785 121.03 613.582 121.005C620.635 120.783 620.136 123.104 625.375 117.829L626.994 116.466C646.499 134.792 624.126 143.079 609.641 147.895C596.797 152.165 582.298 171.193 575.185 183.003C578.215 187.629 588.261 204.092 586.79 209.024C572.439 206.127 560.567 207.14 554.724 221.972C537.495 228.215 545.154 243.281 546.489 257.263C542.83 259.834 540.537 260.766 539.082 264.878C539.355 269.995 547.49 276.77 551.572 279.362L552.133 279.722C552.247 279.792 552.361 279.862 552.474 279.932C554.241 284.684 555.557 288.739 558.213 293.097C559.954 295.026 561.688 297.042 563.628 298.762L563.725 300.813C563.643 302.94 563.584 305.068 562.535 307.014L562.278 309.106L561.686 310.141C560.586 315.811 558.51 315.194 553.03 316.534C536.025 323.663 510.464 329.382 504.312 348.534C498.36 367.06 494.1 387.69 492.35 407.061C459.778 407.475 433.842 414.21 403.491 426.582C399.117 428.365 383.731 437.385 381.077 437.733C383.572 421.213 384.602 400.811 380.721 384.49C369.403 336.891 336.21 310.328 341.69 257.249C342.397 251.582 342.222 242.04 342.673 235.957C344.634 209.444 344.005 184.257 350.979 158.43C358.08 135.36 374.479 113.687 395.371 101.436Z"/><path fill="#77BDDE" d="M381.077 437.733C383.572 421.213 384.602 400.811 380.721 384.49C369.403 336.891 336.21 310.328 341.69 257.249C341.805 258.092 341.762 259.971 342.679 260.183C363.436 264.984 379.084 278.99 397.627 288.817C442.775 312.744 495.422 322.647 543.515 300.906C548.484 298.724 553.502 295.76 558.213 293.097C559.954 295.026 561.688 297.042 563.628 298.762L563.725 300.813C563.643 302.94 563.584 305.068 562.535 307.014L562.278 309.106L561.686 310.141C560.586 315.811 558.51 315.194 553.03 316.534C536.025 323.663 510.464 329.382 504.312 348.534C498.36 367.06 494.1 387.69 492.35 407.061C459.778 407.475 433.842 414.21 403.491 426.582C399.117 428.365 383.731 437.385 381.077 437.733Z"/><path fill="#77D7E5" d="M562.535 307.014C561.074 307.392 549.922 313.264 547.498 314.362C535.727 319.699 526.321 323.903 513.603 326.819C499.09 329.886 479.137 332.052 464.676 333.317C455.387 334.13 401.513 343.342 396.964 341.653C397.995 339.038 410.486 337.307 413.634 336.688C458.311 327.907 505.671 329.502 547.592 309.601C553.438 306.825 558.178 304.149 563.725 300.813C563.643 302.94 563.584 305.068 562.535 307.014Z"/><defs><linearGradient id="gradient_1" gradientUnits="userSpaceOnUse" x1="394.1095" y1="372.08395" x2="422.39044" y2="367.95444"><stop offset="0" stop-color="#F5F3F1"/><stop offset="1" stop-color="#E6F9FA"/></linearGradient></defs><path fill="url(#gradient_1)" d="M414.181 347.19L415.454 347.176L415.539 347.726C415.213 347.991 414.891 348.26 414.571 348.532C409.814 352.585 406.518 358.005 406.102 364.337C405.751 370.057 407.739 375.674 411.611 379.9C416.874 385.682 422.221 386.736 429.609 387.021C424.975 389.458 422.677 390.463 417.561 391.432C412.109 391.654 407.577 390.929 402.964 387.826C398.136 384.544 394.79 379.497 393.645 373.773C392.514 367.797 393.87 361.619 397.4 356.666C401.775 350.426 407.001 348.405 414.181 347.19Z"/><path fill="#47A8D5" d="M395.371 101.436C411.64 90.5763 434.009 87.0099 453.18 87.672C459.634 88.2085 465.306 89.1496 471.692 90.197C485.534 93.2052 499.198 96.9813 512.62 101.508C517.816 103.058 527.408 105.439 531.97 107.165C542.015 109.48 554.502 112.613 564.601 114.037C565.226 119.952 565.302 125.912 564.827 131.84C562.874 159.472 549.936 182.242 526.285 197.01C510.589 206.81 492.385 212.202 473.808 210.635C449.861 208.499 427.775 196.838 412.505 178.269C393.595 155.622 392.954 129.479 395.371 101.436Z"/><path fill="#3B4A82" d="M512.62 101.508C517.816 103.058 527.408 105.439 531.97 107.165C535.217 110.291 537.026 112.376 539.188 116.365C545.653 128.299 540.259 144.085 528.079 150.092C521.815 153.15 514.585 153.565 508.012 151.243C489.113 144.515 484.466 120.174 499.809 107.914C504.584 104.099 506.92 104.137 512.185 101.711L512.62 101.508Z"/><path fill="#3B4A82" d="M453.18 87.672C459.634 88.2085 465.306 89.1496 471.692 90.197C465.911 103.572 454.04 101.075 453.18 87.672Z"/><path fill="#3B4A82" d="M435.894 130.776C446.866 128.913 457.259 136.335 459.058 147.317C460.857 158.299 453.376 168.648 442.382 170.383C431.479 172.105 421.232 164.698 419.447 153.805C417.663 142.912 425.011 132.623 435.894 130.776Z"/><path fill="#E6F3F3" d="M461.699 169.593C463.158 168.921 464.887 169.536 465.595 170.978C466.302 172.42 465.73 174.163 464.306 174.906C463.353 175.403 462.206 175.344 461.308 174.753C460.411 174.161 459.905 173.13 459.986 172.058C460.067 170.986 460.723 170.043 461.699 169.593Z"/><path fill="#E6F3F3" d="M518.012 185.872C519.34 184.99 521.131 185.359 522.002 186.694C522.872 188.029 522.487 189.817 521.145 190.676C519.819 191.523 518.057 191.144 517.198 189.826C516.338 188.508 516.702 186.743 518.012 185.872Z"/><path fill="#E6F3F3" d="M409.044 138.709C410.389 137.873 412.157 138.29 412.987 139.639C413.817 140.987 413.392 142.753 412.04 143.578C410.696 144.397 408.943 143.976 408.118 142.635C407.293 141.294 407.707 139.539 409.044 138.709Z"/><path fill="#9FE3E5" d="M350.979 158.43C369.001 170.872 366.822 181.996 369.551 201.616C372.02 219.368 382.178 236.888 397.098 246.993C410.772 256.254 430.835 264.839 447.445 260.031C450.315 257.51 453.557 254.38 457.163 253.101C456.264 247.162 456.649 242.484 460.526 237.622C463.291 234.092 467.387 231.856 471.852 231.441C477.016 231.007 480.72 232.769 484.437 236.009C488.221 233.327 495.129 228.469 499.93 230.533C502.311 235.09 491.843 242.208 489.273 244.751C490.816 247.81 490.664 249.793 490.528 253.22C493.602 250.36 502.146 246.226 506.255 243.94C511.389 241.083 516.403 238.017 521.286 234.75C535.238 225.458 549.388 212.669 560.68 200.279C565.593 194.889 570.24 188.619 575.185 183.003C578.215 187.629 588.261 204.092 586.79 209.024C572.439 206.127 560.567 207.14 554.724 221.972C537.495 228.215 545.154 243.281 546.489 257.263C542.83 259.834 540.537 260.766 539.082 264.878C539.355 269.995 547.49 276.77 551.572 279.362L552.133 279.722C552.247 279.792 552.361 279.862 552.474 279.932C554.241 284.684 555.557 288.739 558.213 293.097C553.502 295.76 548.484 298.724 543.515 300.906C495.422 322.647 442.775 312.744 397.627 288.817C379.084 278.99 363.436 264.984 342.679 260.183C341.762 259.971 341.805 258.092 341.69 257.249C342.397 251.582 342.222 242.04 342.673 235.957C344.634 209.444 344.005 184.257 350.979 158.43Z"/><path fill="#47A8D5" d="M457.163 253.101C456.264 247.162 456.649 242.484 460.526 237.622C463.291 234.092 467.387 231.856 471.852 231.441C477.016 231.007 480.72 232.769 484.437 236.009L486.88 238.84L488.103 241.534C482.709 246.12 467.569 255.889 461.091 258.375C459.458 256.737 458.742 255.719 457.387 253.889L457.163 253.101Z"/><path fill="#E6F3F3" d="M484.437 236.009C488.221 233.327 495.129 228.469 499.93 230.533C502.311 235.09 491.843 242.208 489.273 244.751C480.107 250.844 472.19 255.967 462.438 261.231C459.136 263.389 447.683 269.636 444.9 265.243C444.911 263.18 446.215 261.823 447.445 260.031C450.315 257.51 453.557 254.38 457.163 253.101L457.387 253.889C458.742 255.719 459.458 256.737 461.091 258.375C467.569 255.889 482.709 246.12 488.103 241.534L486.88 238.84L484.437 236.009Z"/><path fill="#9FE3E5" d="M457.387 253.889C458.742 255.719 459.458 256.737 461.091 258.375C458.411 260.164 451.653 264.504 448.54 263.473C449.058 259.68 456.036 257.796 457.387 253.889Z"/><path fill="#77D7E5" d="M486.88 238.84C489.823 236.091 491.765 233.784 495.733 232.916L496.681 233.374C496.474 236.722 490.802 239.82 488.103 241.534L486.88 238.84Z"/><path fill="#47A8D5" d="M489.273 244.751C490.816 247.81 490.664 249.793 490.528 253.22C485.814 265.763 471.977 274.291 462.438 261.231C472.19 255.967 480.107 250.844 489.273 244.751Z"/><path fill="#E6F3F3" d="M372.683 249.537C373.905 248.81 375.478 249.119 376.333 250.256C377.188 251.392 377.05 252.99 376.013 253.962C375.234 254.692 374.107 254.913 373.111 254.531C372.114 254.149 371.423 253.231 371.332 252.168C371.241 251.105 371.766 250.083 372.683 249.537Z"/><path fill="#E6F3F3" d="M351.251 202.298C352.6 201.669 354.204 202.245 354.844 203.588C355.485 204.932 354.923 206.541 353.586 207.193C352.231 207.854 350.598 207.283 349.949 205.923C349.3 204.563 349.885 202.935 351.251 202.298Z"/><path fill="#E6F3F3" d="M453.856 293.013C454.868 292.103 456.419 292.157 457.367 293.134C458.314 294.111 458.319 295.663 457.378 296.647C456.737 297.317 455.781 297.583 454.886 297.34C453.991 297.098 453.3 296.385 453.085 295.483C452.87 294.581 453.166 293.633 453.856 293.013Z"/><path fill="#E6F3F3" d="M395.083 186.014C395.928 187.293 397.469 192.152 398.072 193.89C401.868 196.221 403.726 196.3 408.032 196.74C399.565 199.896 398.438 200.386 395.477 209.029L395.308 209.27C394.669 209.031 391.882 201.559 390.682 199.321L383.674 197.152C392.241 195.134 392.453 194.324 395.083 186.014Z"/><path fill="#E6F3F3" d="M436.432 219.059C437.434 218.817 438.489 219.154 439.164 219.934C439.84 220.713 440.025 221.805 439.643 222.763C439.262 223.721 438.377 224.387 437.351 224.489C435.907 224.632 434.599 223.633 434.357 222.203C434.115 220.772 435.021 219.399 436.432 219.059Z"/><path fill="#979A99" d="M553.03 316.534C558.51 315.194 560.586 315.811 561.686 310.141C562.011 314.511 561.773 316.401 565.413 319.291C575.723 327.477 594.162 326.037 602.305 315.337C602.991 314.435 603.059 314.431 603.237 313.304C605.843 314.383 608.257 315.5 611.021 316.072C653.113 331.814 659.343 332.456 667.143 379.144C667.449 381.268 667.753 383.336 667.982 385.472C671.199 396.28 672.433 410.722 673.044 422.002C674.418 447.366 664.847 453.153 642.468 452.934L642.396 454.697C643.154 467.038 644.033 479.371 645.034 491.695C645.458 497.03 648.072 512.642 644.586 516.108L643.578 517.015C643.187 516.516 642.772 515.9 641.972 516.095C601.943 525.856 564.229 524.22 523.608 516.837L521.222 516.073C519.603 509.764 522.552 472.098 522.543 462.5L522.452 453.299C519.096 453.388 515.399 453.629 512.073 453.402C486.53 451.656 491.103 424.388 492.35 407.061C494.1 387.69 498.36 367.06 504.312 348.534C510.464 329.382 536.025 323.663 553.03 316.534Z"/><path fill="#979A99" d="M576.234 440.849C595.811 445.831 623.092 452.507 642.396 454.697C643.154 467.038 644.033 479.371 645.034 491.695C645.458 497.03 648.072 512.642 644.586 516.108L643.578 517.015C643.187 516.516 642.772 515.9 641.972 516.095C601.943 525.856 564.229 524.22 523.608 516.837L521.222 516.073C519.603 509.764 522.552 472.098 522.543 462.5C534.734 461.712 564.736 446.653 576.234 440.849Z"/><defs><linearGradient id="gradient_2" gradientUnits="userSpaceOnUse" x1="595.4054" y1="479.81259" x2="566.14435" y2="429.30994"><stop offset="0" stop-color="#636867"/><stop offset="1" stop-color="#7A7B7C"/></linearGradient></defs><path fill="url(#gradient_2)" d="M522.452 453.299C547.169 448.357 571.451 437.496 594.544 427.545C596.906 426.527 607.239 421.087 608.673 421.575L608.865 420.961L609.225 421.155L608.83 421.003L609.305 420.958L608.468 421.762L608.21 421.2L608.036 422.057C600.773 426.469 585.712 434.904 577.835 439.012C593.991 443.641 626.627 452.303 642.468 452.934L642.396 454.697C623.092 452.507 595.811 445.831 576.234 440.849C564.736 446.653 534.734 461.712 522.543 462.5L522.452 453.299Z"/><path fill="#B3B4B3" d="M553.03 316.534C558.51 315.194 560.586 315.811 561.686 310.141C562.011 314.511 561.773 316.401 565.413 319.291C575.723 327.477 594.162 326.037 602.305 315.337C602.991 314.435 603.059 314.431 603.237 313.304C605.843 314.383 608.257 315.5 611.021 316.072C609.969 317.982 608.33 321.277 606.864 322.779C590.908 339.136 564.345 335.896 553.03 316.534Z"/><path fill="#DDADAA" d="M514.068 392.626C514.754 391.098 515.315 389.379 516.779 388.607C520.361 386.719 527.823 389.241 531.764 390.205L532.861 390.375C540.324 393.911 548.342 399.968 553.162 406.7L553.792 406.543C558.591 405.372 599.328 400.293 603.435 400.731C602.906 401.154 523.668 413.098 519.168 412.447C517.462 411.592 514.732 408.71 514.975 406.647L518.45 406.112C517.953 404.836 513.801 406.162 511.171 403.278C511.198 401.549 510.894 402.236 511.85 401.054C514.231 400.429 518.383 400.878 520.997 401.028C514.421 399.688 513.591 399.619 508.467 395.416C510.439 394.952 512.557 394.552 514.552 394.137L514.068 392.626Z"/><path fill="#6D6D6D" d="M553.162 406.7L553.792 406.543C558.591 405.372 599.328 400.293 603.435 400.731C602.906 401.154 523.668 413.098 519.168 412.447C530.351 410.02 541.883 408.955 553.162 406.7Z"/><path fill="#C58F8B" d="M514.068 392.626C516.82 393.05 520.935 393.564 523.506 394.253L523.816 395.065L524.116 395.071L524.313 394.494L524.67 395.058L525.061 394.834L524.654 395.101L524.321 394.556L523.718 395.131L523.715 394.387L523.142 395.115C520.199 394.838 517.479 394.587 514.552 394.137L514.068 392.626Z"/><path fill="#DDADAA" d="M604.009 401.224C615.233 398.738 626.509 394.334 634.527 404.997C635.016 407.046 635.496 409.264 636.062 411.277C635.201 412.389 614.166 416.919 610.737 418.085C607.743 412.574 606.061 407.133 604.009 401.224Z"/><path fill="#6D6D6D" d="M634.527 404.997C633.928 400.222 630.733 377.667 631.663 374.535C632.046 374.839 637.162 411.237 636.933 412.771L636.062 411.277C635.496 409.264 635.016 407.046 634.527 404.997Z"/><path fill="#6D6D6D" d="M531.764 390.205C532.019 387.314 532.971 377.037 534.041 374.663C534.41 378.011 533.548 386.815 532.861 390.375L531.764 390.205Z"/><path fill="#DDADAA" d="M554.724 221.972C560.567 207.14 572.439 206.127 586.79 209.024C590.324 210.53 593.677 211.905 597.419 213.251C605.315 216.091 612.574 216.479 616.62 224.893C619.632 231.156 617.849 251.48 615.974 257.878C617.827 258.289 619.897 258.432 620.755 260.329C624.484 268.568 616.194 275.796 610.557 279.275C606.543 289.207 605.641 291.151 599.256 299.506C600.176 304.449 601.062 308.721 603.237 313.304C603.059 314.431 602.991 314.435 602.305 315.337C594.162 326.037 575.723 327.477 565.413 319.291C561.773 316.401 562.011 314.511 561.686 310.141L562.278 309.106L562.535 307.014C563.584 305.068 563.643 302.94 563.725 300.813L563.628 298.762C561.688 297.042 559.954 295.026 558.213 293.097C555.557 288.739 554.241 284.684 552.474 279.932C552.361 279.862 552.247 279.792 552.133 279.722L551.572 279.362C547.49 276.77 539.355 269.995 539.082 264.878C540.537 260.766 542.83 259.834 546.489 257.263C545.154 243.281 537.495 228.215 554.724 221.972Z"/><path fill="#8A6754" d="M554.724 221.972C560.567 207.14 572.439 206.127 586.79 209.024C590.324 210.53 593.677 211.905 597.419 213.251C605.315 216.091 612.574 216.479 616.62 224.893C619.632 231.156 617.849 251.48 615.974 257.878L614.115 258.357C613.597 258.118 612.262 257.737 611.652 257.543C611.134 257.724 608.485 258.574 608.47 258.561C604.024 254.73 603.65 250.963 597.331 250.794C589.184 250.575 589.582 253.366 584.528 258.52C583.305 259.767 581.404 259.737 579.706 259.661C577.355 259.556 576.143 256.006 574.308 254.127C572.226 251.994 570.126 250.617 567.013 250.563C561.102 250.461 557.884 255.048 554.308 258.427L552.462 257.856C550.458 257.096 550.151 256.954 548.025 257.06L547.06 257.735L546.489 257.263C545.154 243.281 537.495 228.215 554.724 221.972Z"/><path fill="#DDADAA" d="M552.462 257.856C553.358 253.399 556.555 249.363 556.806 245.223C557.317 236.803 559.89 235.964 567.908 237.454C574.995 238.77 582.412 241.741 589.749 241.746C592.811 241.676 600.279 238.898 604.052 238.954C604.729 240.056 611.3 256.121 611.652 257.543C611.134 257.724 608.485 258.574 608.47 258.561C604.024 254.73 603.65 250.963 597.331 250.794C589.184 250.575 589.582 253.366 584.528 258.52C583.305 259.767 581.404 259.737 579.706 259.661C577.355 259.556 576.143 256.006 574.308 254.127C572.226 251.994 570.126 250.617 567.013 250.563C561.102 250.461 557.884 255.048 554.308 258.427L552.462 257.856Z"/><path fill="#4F342D" d="M552.462 257.856L554.308 258.427C557.884 255.048 561.102 250.461 567.013 250.563C570.126 250.617 572.226 251.994 574.308 254.127C576.143 256.006 577.355 259.556 579.706 259.661C581.404 259.737 583.305 259.767 584.528 258.52C589.582 253.366 589.184 250.575 597.331 250.794C603.65 250.963 604.024 254.73 608.47 258.561C608.485 258.574 611.134 257.724 611.652 257.543C612.262 257.737 613.597 258.118 614.115 258.357C612.38 259.278 610.185 260.361 608.584 261.426C606.03 273.059 596.688 280.003 586.773 268.94C585.4 267.408 585.218 263.544 583.233 261.727C582.392 261.628 581.602 261.508 580.756 261.491C577.739 262.432 577.963 263.451 577.221 266.486C575.817 273.005 565.808 276.604 560.914 272.599C553.501 266.532 557.016 261.265 547.06 257.735L548.025 257.06C550.151 256.954 550.458 257.096 552.462 257.856Z"/><path fill="#DDADAA" d="M588.197 257.519C589.771 254.78 592.576 252.974 595.721 252.676C598.866 252.379 601.96 253.626 604.019 256.022C607.246 259.775 607.141 265.352 603.775 268.982C600.41 272.612 594.856 273.137 590.869 270.204C586.883 267.27 585.733 261.812 588.197 257.519Z"/><path fill="#C58F8B" d="M588.197 257.519C589.771 254.78 592.576 252.974 595.721 252.676C598.866 252.379 601.96 253.626 604.019 256.022L602.451 256.345C597.622 256.389 594.234 256.218 589.519 257.314L588.197 257.519Z"/><path fill="#6E413C" d="M589.519 257.314C592.63 254.155 598.907 253.687 602.451 256.345C597.622 256.389 594.234 256.218 589.519 257.314Z"/><path fill="#4F342D" d="M595.151 259.555C597.023 260.548 597.252 260.548 598.091 262.369C598.174 264.615 597.81 264.923 596.667 266.988C594.849 265.672 594.253 265.481 593.435 263.511C593.374 261.628 593.968 261.19 595.151 259.555Z"/><path fill="#DDADAA" d="M559.077 255.855C561.181 253.498 564.299 252.31 567.438 252.67C570.577 253.03 573.346 254.893 574.861 257.665C577.231 262.001 575.971 267.424 571.933 270.271C567.895 273.118 562.363 272.484 559.075 268.797C555.786 265.109 555.787 259.542 559.077 255.855Z"/><path fill="#DDADAA" d="M559.077 255.855C561.181 253.498 564.299 252.31 567.438 252.67C570.577 253.03 573.346 254.893 574.861 257.665L573.08 258.811L572.485 257.886C568.681 256.139 564.918 257.03 560.781 257.526L559.077 255.855Z"/><path fill="#6E413C" d="M560.781 257.526C562.684 253.636 571.475 253.597 572.485 257.886C568.681 256.139 564.918 257.03 560.781 257.526Z"/><path fill="#4F342D" d="M566.451 259.771C568.697 261.01 568.138 260.312 569.256 262.37C569.288 264.579 569.031 264.785 567.939 266.814C565.948 265.803 566.727 266.51 565.539 264.588C565.339 262.343 565.61 261.894 566.451 259.771Z"/><path fill="#C58F8B" d="M563.628 298.762C572.702 306.372 579.066 306.706 590.366 304.925C582.677 310.474 576.191 311.859 566.517 310.695C565.063 310.521 563.366 310.127 562.278 309.106L562.535 307.014C563.584 305.068 563.643 302.94 563.725 300.813L563.628 298.762Z"/><path fill="#C58F8B" d="M577.221 266.486C577.963 263.451 577.739 262.432 580.756 261.491C581.661 269.87 575.955 273.713 583.718 278.686L583.689 279.081C581.551 278.68 581.468 278.674 579.718 277.445C576.861 272.547 580.034 269.793 578.481 266.619L577.221 266.486Z"/><path fill="#DAA29E" d="M611.483 271.278C611.664 267.625 613.101 261.895 617.693 261.948L617.732 262.694C617.457 265.97 615.081 270.928 613.12 273.53L612.027 274.048C611.27 272.763 611.522 272.99 611.483 271.278Z"/><path fill="#C58F8B" d="M611.483 271.278C611.664 267.625 613.101 261.895 617.693 261.948L617.732 262.694C612.82 265.98 614.462 267.891 611.483 271.278Z"/><path fill="#C58F8B" d="M590.415 285.274L591.174 285.303L590.632 286.082C584.64 289.067 583.306 288.978 576.625 287.911L576.127 287.661L576.06 287.112C582.623 286.811 584.153 287.609 590.415 285.274Z"/><path fill="#C58F8B" d="M546.114 261.404C548.502 263.11 549.309 267.334 550.054 270.115C548.268 268.789 546.682 263.583 546.114 261.404Z"/><path fill="#47A8D5" d="M667.143 379.144C672.718 376.043 679.805 373.209 685.681 370.597C710.471 359.579 732.487 340.385 739.93 313.398C748.598 281.967 737.232 258.776 719.796 234.444C724.645 235.737 735.641 252.796 738.532 257.784C748.439 274.575 751.241 294.623 746.318 313.486C739.553 338.973 722.865 358.299 700.212 371.045C691.665 375.854 677.36 382.641 667.982 385.472C667.753 383.336 667.449 381.268 667.143 379.144Z"/><path fill="#47A8D5" d="M779.332 466.446C782.511 481.919 785.695 495.44 791.284 510.264C782.06 506.449 772.418 504.568 763.485 499.767C747.048 490.935 755.533 466.8 772.76 466.85C774.794 466.856 777.394 467.03 779.332 466.446Z"/><path fill="#9FE3E5" d="M648.976 522.936C656.753 516.891 682.989 496.648 691.806 496.73C693.095 497.64 692.689 497.034 692.987 498.656C689.058 506.51 661.839 521.063 652.803 528.96C659.285 546.638 658.61 561.354 652.862 579.258C652.204 581.306 648.838 590.801 647.116 591.434L646.332 590.521C646.321 573.227 644.714 552.562 644.105 534.869C646.308 534.299 650.735 530.612 652.754 529.044L648.976 522.936Z"/><path fill="#3B4A82" d="M827.459 654.219C821.625 653.025 816.471 650.399 816.332 643.546C816.274 640.617 817.455 637.799 819.585 635.787C822.95 632.556 826.023 632.459 830.256 632.522C830.056 638.611 829.055 648.299 827.459 654.219Z"/><path fill="#E6F3F3" d="M776.845 418.85C770.659 420.287 772.955 423.054 770.532 424.447C767.386 417.333 765.2 420.665 762.668 417.59C766.635 415.102 769.095 417.441 769.681 410.224C771.232 411.561 772.775 414.514 773.586 415.554C774.31 416.483 775.695 415.341 776.992 418.325L776.845 418.85Z"/><path fill="#3B4A82" d="M717.447 628.397C728.52 627.249 738.448 635.24 739.692 646.302C740.935 657.363 733.029 667.359 721.977 668.698C710.791 670.052 700.645 662.029 699.387 650.832C698.128 639.635 706.239 629.559 717.447 628.397Z"/><path fill="#3B4A82" d="M784.315 593.638C794.614 590.958 805.132 597.147 807.791 607.451C810.45 617.754 804.239 628.259 793.929 630.897C783.649 633.527 773.18 627.339 770.529 617.065C767.878 606.79 774.045 596.31 784.315 593.638Z"/><path fill="#3B4A82" d="M757.343 658.497C765.525 656.749 773.569 661.986 775.279 670.175C776.99 678.365 771.715 686.384 763.518 688.056C755.373 689.718 747.417 684.486 745.717 676.35C744.018 668.213 749.214 660.234 757.343 658.497Z"/><path fill="#E6F3F3" d="M711.572 413.479C713.054 413.313 713.437 413.168 714.864 413.688C713.473 415.578 711.601 416.83 710.061 418.813C704.907 425.45 705.077 434.043 710.87 440.241C715.547 445.243 719.578 445.943 726.202 446.331C723.67 447.642 721.663 448.442 719.025 449.496C714.081 450.151 710.421 450.154 705.825 447.771C701.534 445.559 698.326 441.699 696.935 437.077C695.533 432.424 696.03 427.406 698.319 423.118C701.331 417.513 705.695 415.105 711.572 413.479Z"/><path fill="#47A8D5" d="M784.084 654.442C787.794 653.392 791.665 655.489 792.812 659.169C793.96 662.85 791.966 666.775 788.317 668.019C785.869 668.853 783.161 668.294 781.245 666.557C779.328 664.821 778.505 662.181 779.095 659.664C779.685 657.146 781.596 655.147 784.084 654.442Z"/><path fill="#3B4A82" d="M734.287 582.018C737.341 580.965 740.673 582.567 741.756 585.611C742.84 588.654 741.27 592.002 738.237 593.114C735.162 594.243 731.757 592.646 730.659 589.561C729.561 586.475 731.191 583.086 734.287 582.018Z"/><path fill="#347CB0" d="M669.245 300.72C671.232 300.108 673.396 300.613 674.906 302.042C676.417 303.471 677.041 305.604 676.539 307.622C676.037 309.64 674.487 311.231 672.482 311.786C669.445 312.628 666.294 310.874 665.409 307.849C664.524 304.824 666.232 301.649 669.245 300.72Z"/><path fill="#47A8D5" d="M787.586 268.646C789.973 274.229 789.926 273.846 795.084 277.314L794.79 277.881L791.189 278.983C789.751 281.678 789.027 284.282 787.704 287.036C784.068 280.296 786.038 282.044 779.646 276.985C781.411 276.16 783.184 275.351 784.965 274.559L787.586 268.646Z"/><path fill="#77D7E5" d="M801.29 224.789C803.719 224.112 806.249 225.474 807.022 227.874C807.795 230.274 806.534 232.856 804.167 233.724C802.549 234.317 800.737 233.977 799.444 232.837C798.152 231.698 797.587 229.943 797.972 228.264C798.357 226.585 799.63 225.251 801.29 224.789Z"/><path fill="#47A8D5" d="M675.606 473.266C677.288 473.923 678.556 474.796 679.272 476.454C679.477 478.668 679.053 478.998 677.856 481.038C674.981 480.515 673.731 480.334 672.949 477.293C673.334 475.128 673.907 474.883 675.606 473.266Z"/><path fill="#9FE3E5" d="M793.439 311.325C795.049 310.764 796.812 311.592 797.409 313.188C798.006 314.785 797.22 316.566 795.638 317.2C794.581 317.623 793.378 317.441 792.494 316.725C791.61 316.008 791.184 314.868 791.38 313.747C791.576 312.626 792.364 311.699 793.439 311.325Z"/><path fill="#E6F3F3" d="M730.079 619.984C731.593 619.639 733.108 620.555 733.507 622.055C733.906 623.556 733.045 625.103 731.559 625.555C730.55 625.862 729.454 625.593 728.701 624.855C727.948 624.116 727.658 623.026 727.945 622.011C728.232 620.996 729.05 620.219 730.079 619.984Z"/><path fill="#E6F3F3" d="M675.809 200.576C677.355 200.253 678.869 201.249 679.184 202.797C679.499 204.344 678.496 205.853 676.947 206.161C675.408 206.466 673.912 205.471 673.599 203.934C673.286 202.398 674.273 200.897 675.809 200.576Z"/><path fill="#E6F3F3" d="M800.952 548.703C802.218 548.112 803.727 548.594 804.415 549.81C805.104 551.027 804.74 552.568 803.581 553.349C802.746 553.911 801.667 553.958 800.787 553.47C799.906 552.982 799.374 552.042 799.409 551.036C799.444 550.03 800.04 549.129 800.952 548.703Z"/><path fill="#47A8D5" d="M381.077 437.733C383.731 437.385 399.117 428.365 403.491 426.582C433.842 414.21 459.778 407.475 492.35 407.061C491.103 424.388 486.53 451.656 512.073 453.402C515.399 453.629 519.096 453.388 522.452 453.299L522.543 462.5C522.552 472.098 519.603 509.764 521.222 516.073L523.608 516.837C523.621 520.663 523.816 534.988 523.318 538.234C522.611 574.468 522.328 610.709 522.467 646.949C522.554 659.768 522.139 680.848 523.179 693.138C510.198 694.837 489.31 700.015 476.506 703.56C448.849 711.218 417.939 719.412 391.359 702.453C376.696 694.607 366.302 683.535 357.146 669.947C333.104 635.165 337.001 592.483 344.843 553.392C345.571 549.787 346.34 546.829 347.319 543.277C350.416 531.914 353.948 520.674 357.909 509.583C368.007 481.809 375.388 467.676 381.077 437.733Z"/><path fill="#77BDDE" d="M523.318 538.234C522.611 574.468 522.328 610.709 522.467 646.949C522.554 659.768 522.139 680.848 523.179 693.138C510.198 694.837 489.31 700.015 476.506 703.56C448.849 711.218 417.939 719.412 391.359 702.453C376.696 694.607 366.302 683.535 357.146 669.947C363.274 666.436 369.871 664.565 376.008 659.827C386.65 651.61 395.401 641.245 405.046 631.782C416.74 620.308 425.899 613.193 439.174 604.075C444.311 598.45 447.872 591.655 452.577 585.962C459.12 578.044 464.158 580.005 471.941 579.637C489.786 578.794 512.229 551.472 523.318 538.234Z"/><path fill="#77D7E5" d="M439.174 604.075C448.359 608.883 457.943 623.793 460.901 633.246C465.615 648.301 459.323 668.049 445.055 675.63C438.715 678.999 430.957 679.378 424.223 681.692C412.762 686.593 401.745 695.392 391.359 702.453C376.696 694.607 366.302 683.535 357.146 669.947C363.274 666.436 369.871 664.565 376.008 659.827C386.65 651.61 395.401 641.245 405.046 631.782C416.74 620.308 425.899 613.193 439.174 604.075Z"/><path fill="#E6F3F3" d="M496.416 652.329C497.634 653.562 498.907 659.473 500.2 661.22C502.203 663.928 507.155 664.947 510.044 665.799C500.542 668.589 498.751 669.963 497.472 679.999C491.593 670.68 497.171 669.794 483.126 665.765C493.103 663.183 493.96 662.677 496.416 652.329Z"/><path fill="#E6F3F3" d="M487.341 615.519C488.748 615.38 490.038 616.31 490.352 617.689C490.665 619.068 489.904 620.464 488.575 620.948C487.554 621.319 486.41 621.068 485.639 620.302C484.868 619.537 484.608 618.395 484.972 617.371C485.336 616.347 486.259 615.626 487.341 615.519Z"/><path fill="#3B4A82" d="M347.319 543.277C370.258 536.807 359.565 569.49 344.843 553.392C345.571 549.787 346.34 546.829 347.319 543.277Z"/><path fill="#3B4A82" d="M434.821 480.515C438.719 480.202 442.625 481.02 446.07 482.871C449.313 484.584 452.214 487.777 453.217 491.319C458.508 510.003 441.996 530.336 424.726 535.107C390.512 535.732 401.511 485.721 434.821 480.515Z"/><path fill="#3B4A82" d="M354.379 603.184C358.464 601.832 362.87 604.056 364.208 608.146C365.545 612.236 363.304 616.634 359.209 617.956C355.135 619.272 350.765 617.045 349.434 612.976C348.104 608.908 350.315 604.529 354.379 603.184Z"/><path fill="#3B4A82" d="M489.68 481.864C492.257 480.877 495.167 481.369 497.277 483.148C499.387 484.927 500.363 487.713 499.825 490.42C499.287 493.126 497.32 495.327 494.69 496.164C490.782 497.409 486.592 495.319 485.236 491.448C483.88 487.577 485.849 483.33 489.68 481.864Z"/><path fill="#3B4A82" d="M451.183 540.808C454.253 539.654 457.685 541.137 458.949 544.163C460.212 547.19 458.852 550.673 455.873 552.044C453.848 552.975 451.477 552.727 449.689 551.396C447.901 550.066 446.983 547.865 447.294 545.659C447.605 543.452 449.097 541.592 451.183 540.808Z"/><path fill="#3B4A82" d="M372.606 518.967C375.507 517.771 378.829 519.16 380.016 522.065C381.203 524.971 379.803 528.288 376.894 529.465C373.998 530.638 370.698 529.246 369.517 526.354C368.335 523.461 369.717 520.158 372.606 518.967Z"/><path fill="#3B4A82" d="M397.077 445.158C399.379 444.933 401.433 446.603 401.68 448.903C401.928 451.202 400.278 453.272 397.981 453.542C395.652 453.816 393.547 452.138 393.296 449.807C393.044 447.475 394.743 445.387 397.077 445.158Z"/><path fill="#3B4A82" d="M401.004 574.586C403.03 573.565 405.5 574.388 406.507 576.42C407.515 578.453 406.674 580.917 404.635 581.91C402.615 582.894 400.18 582.063 399.183 580.051C398.185 578.038 398.999 575.598 401.004 574.586Z"/><path fill="#3B4A82" d="M468.024 514.937C470.068 514.386 472.186 515.525 472.852 517.534C473.519 519.543 472.501 521.722 470.533 522.501C469.157 523.046 467.592 522.784 466.468 521.822C465.344 520.859 464.845 519.354 465.171 517.911C465.497 516.467 466.595 515.323 468.024 514.937Z"/><path fill="#3B4A82" d="M464.348 444.609C465.469 444.132 466.763 444.327 467.694 445.113C468.624 445.898 469.034 447.141 468.752 448.326C468.471 449.511 467.546 450.437 466.361 450.72C464.729 451.109 463.07 450.184 462.545 448.59C462.02 446.996 462.804 445.266 464.348 444.609Z"/><path fill="#E6F3F3" d="M423.84 586.46C424.684 585.926 425.752 585.894 426.627 586.375C427.502 586.856 428.047 587.776 428.048 588.774C428.049 589.773 427.507 590.694 426.633 591.177C425.335 591.894 423.702 591.45 422.946 590.174C422.191 588.898 422.587 587.253 423.84 586.46Z"/><path fill="#77D7E5" d="M510.392 457.574C511.673 457.033 513.153 457.586 513.766 458.834C514.379 460.082 513.911 461.591 512.699 462.273C511.852 462.75 510.811 462.719 509.994 462.193C509.177 461.667 508.718 460.732 508.801 459.764C508.885 458.795 509.497 457.953 510.392 457.574Z"/><path d="M523.608 516.837C564.229 524.22 601.943 525.856 641.972 516.095C642.772 515.9 643.187 516.516 643.578 517.015L644.586 516.108C646.191 519.096 646.819 520.353 648.976 522.936L652.754 529.044C650.735 530.612 646.308 534.299 644.105 534.869C644.714 552.562 646.321 573.227 646.332 590.521C648.025 632.263 649.363 674.018 650.347 715.783C650.863 740.32 651.596 764.852 652.545 789.376L647.308 790.112C639.376 791.252 632.108 791.874 624.147 792.54C622.15 792.642 620.882 792.895 619.043 792.116C616.853 782.682 614.897 765.868 613.382 755.846C610.577 737.294 607.359 717.919 604.975 699.367C590.977 694.192 584.337 692.662 569.428 691.834L568.159 705.087C579.199 707.7 587.018 711.021 589.786 722.804C586.319 736.517 577.258 735.817 565.338 736.162L561.676 776.364C561.385 779.619 560.743 790.508 560.068 792.739C558.358 793.407 557.511 793.2 555.622 793.107L531.576 792.311L525.358 791.477C524.582 772.403 524.83 752.787 523.977 734.131C523.369 724.766 523.41 714.104 523.24 704.636L523.179 693.138C522.139 680.848 522.554 659.768 522.467 646.949C522.328 610.709 522.611 574.468 523.318 538.234C523.816 534.988 523.621 520.663 523.608 516.837Z"/><path fill="#77BDDE" d="M597.088 645.174L602.182 680.586C602.933 685.868 603.869 694.421 604.975 699.367C590.977 694.192 584.337 692.662 569.428 691.834C571.398 679.018 571.998 662.852 573.558 649.614C582.514 649.566 588.818 648.453 597.088 645.174Z"/><path fill="#9FE3E5" d="M587.561 585.601C590.853 605.44 594.029 625.298 597.088 645.174C588.818 648.453 582.514 649.566 573.558 649.614C574.849 636.142 576.23 622.679 577.703 609.226C578.361 603.179 579.175 593.634 580.252 587.898L580.564 588.412L581.579 588.621C583.895 586.826 584.583 586.089 587.561 585.601Z"/><path fill="#77BDDE" d="M568.159 705.087C579.199 707.7 587.018 711.021 589.786 722.804C586.319 736.517 577.258 735.817 565.338 736.162C566.579 726.402 567.501 714.918 568.159 705.087Z"/><path fill="#77D7E5" d="M580.252 587.898C580.88 579.42 582.06 569.099 583.147 560.676C585.029 567.005 586.508 578.665 587.561 585.601C584.583 586.089 583.895 586.826 581.579 588.621L580.564 588.412L580.252 587.898Z"/><path fill="#77D7E5" d="M644.586 516.108C646.191 519.096 646.819 520.353 648.976 522.936L652.754 529.044C650.735 530.612 646.308 534.299 644.105 534.869C643.701 529.047 643.346 522.824 643.578 517.015L644.586 516.108Z"/><path fill="#77BDDE" d="M796.174 476.146C793.799 456.986 792.112 431.894 803.827 415.049C810.311 405.726 821.574 405.473 824.599 417.755C830.199 440.496 836.816 462.56 845.008 484.551C847.204 490.519 848.845 499.231 850.282 505.578C852.828 519.991 855.101 536.732 852.506 551.333C852.09 552.676 851.642 554.009 851.163 555.332C849.911 558.718 846.61 564.221 843.204 565.237C826.955 570.084 813.757 534.136 809.566 523.075C803.624 511.072 798.311 489.448 796.174 476.146Z"/><path fill="#47A8D5" d="M796.174 476.146C808.521 481.777 819.015 488.449 830.562 495.494C834.771 498.061 845.945 505.567 850.282 505.578C852.828 519.991 855.101 536.732 852.506 551.333C852.09 552.676 851.642 554.009 851.163 555.332C849.911 558.718 846.61 564.221 843.204 565.237C826.955 570.084 813.757 534.136 809.566 523.075C803.624 511.072 798.311 489.448 796.174 476.146Z"/><path fill="#77BDDE" d="M809.566 523.075C810.077 522.983 810.588 522.892 811.099 522.8C823.375 529.437 834.736 538.089 846.051 546.233C848.357 547.893 850.428 549.504 852.506 551.333C852.09 552.676 851.642 554.009 851.163 555.332C849.911 558.718 846.61 564.221 843.204 565.237C826.955 570.084 813.757 534.136 809.566 523.075Z"/><path fill="#77BDDE" d="M323.024 305.411C332.152 307.159 336.154 317.872 340.421 325.319C351.491 344.638 362.959 364.939 364.813 387.594C365.565 396.777 364.653 408.536 353.099 409.401C342.809 407.946 337.519 394.794 332.538 386.882C325.183 375.2 317.083 363.576 312.542 350.46C308.351 338.356 307.807 310.268 323.024 305.411Z"/><path fill="#77BDDE" d="M565.755 76.0952C576.545 75.1463 586.698 77.6964 597.54 78.0872C612.017 78.6091 629.261 75.4807 643.162 80.0515C645.093 80.7528 648.623 82.63 649.187 84.8437C651.262 92.9923 640.65 96.3141 635.472 98.0573L634.869 98.2372C615.934 103.81 577.613 103.453 559.044 94.7182C556.719 93.4419 553.606 90.9579 553.204 88.1716C551.963 79.5537 559.2 77.1903 565.755 76.0952Z"/><path d="M624.147 792.54C632.108 791.874 639.376 791.252 647.308 790.112C647.555 792.488 647.706 794.535 648.269 796.869C655.567 800.134 690.256 818.72 691.479 825.12L691.005 825.882C686.004 826.956 666.146 826.012 660.321 826.083C654.753 826.151 624.889 826.575 622.342 825.184C619.772 820.546 622.171 806.763 623.125 801.489C622.911 798.27 623.448 795.642 624.147 792.54Z"/><path fill="#DDADAA" d="M624.147 792.54C632.108 791.874 639.376 791.252 647.308 790.112C647.555 792.488 647.706 794.535 648.269 796.869C640.492 806.071 633.753 807.214 623.125 801.489C622.911 798.27 623.448 795.642 624.147 792.54Z"/><path d="M531.576 792.311L555.622 793.107C555.603 796.13 555.542 799.254 555.581 802.267C556.991 809.654 558.418 818.016 557.359 825.517C551.215 826.324 489.638 826.444 487.565 825.627C486.621 821.294 511.295 806.831 515.8 804.421L517.357 803.825C521.59 800.874 526.343 798.955 531.015 796.654C531.049 795.527 531.407 793.491 531.576 792.311Z"/><path fill="#DDADAA" d="M531.576 792.311L555.622 793.107C555.603 796.13 555.542 799.254 555.581 802.267C544.045 805.291 538.731 807.769 531.015 796.654C531.049 795.527 531.407 793.491 531.576 792.311Z"/><path fill="#B3B4B3" d="M517.357 803.825C519.954 807.154 522.036 809.734 524.209 813.389C520.953 810.303 518.726 807.77 515.8 804.421L517.357 803.825Z"/><path fill="#77BDDE" d="M333.705 149.589C335.224 149.722 335.737 149.981 337.134 150.495C342.047 155.714 335.04 182.3 334.72 190.42C333.723 201.143 333.874 211.817 333.713 222.554C333.634 227.829 335.201 244.878 329.283 246.055C327.184 245.561 326.986 245.349 325.503 243.763C325.162 243.149 324.836 242.527 324.526 241.898C315.097 222.74 311.654 160.328 333.705 149.589Z"/><path fill="#77BDDE" d="M523.24 704.636C523.41 714.104 523.369 724.766 523.977 734.131C512.112 734.729 479.608 737.696 472.798 731.013C454.949 713.499 517.055 705.297 523.24 704.636Z"/><path fill="#47A8D5" d="M345.033 496.011C347.356 495.892 348.116 495.904 349.675 497.49C352.385 505.803 342.675 528.963 339.767 538.13C335.08 551.325 333.251 564.568 332.241 578.459C331.801 584.512 331.827 590.527 325.293 592.289C320.426 587.432 319.643 581.048 319.269 574.484C317.987 551.997 325.171 532.422 335.22 512.746C338.084 507.138 340.786 500.734 345.033 496.011Z"/><path fill="#47A8D5" d="M822.348 333.403C827.73 321.043 832.274 309.119 836.101 295.889C838.466 287.716 839.41 274.552 844.556 267.453C845.632 265.967 847.074 265.859 848.749 265.808C861.484 271.182 855.048 305.032 852.032 315.411L851.284 314.278C847.856 314.928 830.607 331.189 822.348 333.403Z"/><path fill="#77BDDE" d="M822.348 333.403C830.607 331.189 847.856 314.928 851.284 314.278L852.032 315.411C850.024 321.898 847.636 328.261 844.878 334.466C842.229 340.295 825.612 371.839 821.369 373.797C819.964 374.445 818.236 374.714 816.755 374.171C815.035 373.541 813.694 372.093 812.992 370.427C808.873 360.657 817.447 344.21 821.522 335.222L822.348 333.403Z"/><path fill="#77BDDE" d="M343.797 429.17C359.851 428.986 353.864 457.419 344.757 465.412C334.099 469.122 334.251 456.724 335.339 449.798C336.513 442.329 336.496 433.152 343.797 429.17Z"/><path fill="#77BDDE" d="M516.488 74.3909C523.29 73.5573 528.449 74.0878 534.077 78.3978C539.692 82.6981 535.644 87.3071 530.601 89.2625C527.507 89.4346 525.32 89.5393 522.281 88.8392C514.086 86.9511 504.003 80.2826 516.488 74.3909Z"/><path fill="#77BDDE" d="M442.13 724.511C445.589 724.302 453.196 724.208 452.601 730.562C452.427 732.421 449.647 733.657 448.022 734.339C443.675 734.625 440.926 734.288 437.892 731.011C436.565 726.926 438.959 726.107 442.13 724.511Z"/><path fill="#9FE3E5" fill-opacity="0.98823529" d="M608.426 116.633C614.819 116.465 620.015 115.791 626.382 114.997L626.994 116.466L625.375 117.829C620.267 117.6 619.589 117.781 614.845 119.26C612.787 118.518 610.471 117.484 608.426 116.633Z"/></svg>