<?xml version="1.0" encoding="utf-8" ?><svg xmlns="http://www.w3.org/2000/svg" xmlns:xlink="http://www.w3.org/1999/xlink" width="1152" height="896" viewBox="0 0 1152 896"><path fill="#2C2E3F" d="M437.465 113.906C345.007 91.9707 253.536 116.646 194.353 192.71C189.874 198.467 184.38 204.448 176.675 205.195C172.346 205.616 168.032 204.258 164.726 201.433C161.369 198.583 159.27 194.526 158.883 190.14C157.892 178.629 173.387 159.52 180.74 150.79C232.981 88.769 295.519 64.2752 375.66 65.1681C405.996 65.5578 436.195 69.3192 465.7 76.3832C476.145 78.8088 486.456 81.7773 496.591 85.2766C506.039 88.5964 516.584 93.2805 526.215 95.3156C528.199 95.7348 536.395 94.77 538.799 94.5551C547.571 94.434 553.869 94.4423 562.554 95.2309C564.904 95.4441 576.913 96.6838 578.028 96.6327C579.794 73.7462 594.604 72.3431 614.057 73.7666C635.745 75.3536 656.395 85.9201 670.897 102.124C677.213 109.403 678.484 114.753 678.646 124.111C688.482 127.736 698.115 132.905 707.303 137.911C766.219 170.007 810.99 228.357 840.657 287.82C847.666 303.494 853.551 315.653 857.902 332.312L857.788 332.712C858.324 335 858.438 336.025 859.831 337.917L859.915 338.486C865.402 357.415 870.878 382.374 872.052 402.104L872.203 405.217C874.065 414.049 873.646 429.423 873.623 438.828C854.972 437.916 838.753 451.49 836.366 470.008C833.978 488.526 846.225 505.769 864.497 509.615C863.031 512.622 862.369 516.646 861.523 519.983C859.805 526.755 857 537.784 853.616 543.85L851.384 549.024C847.438 558.644 843.156 569.417 838.365 578.533C830.597 592.131 822.387 607.277 813.626 620.035C808.799 626.496 803.963 633.183 798.658 639.239C794.093 644.263 789.416 650.312 785.115 654.916C781.258 669.693 772.509 679.087 758.558 680.703C755.768 681.026 746.861 689.183 744.192 691.5C735.067 698.711 720.552 708.821 710.295 714.289C702.18 719.206 694.214 723.558 685.898 728.108C686.324 732.532 686.613 751.083 685.886 755.311C685.154 761.855 685.639 776.92 685.662 784.435C692.059 787.268 714.41 797.278 719.899 798.253C728.062 800.879 745.029 805.311 746.982 815.001C747.479 817.519 746.935 820.131 745.475 822.241C743.533 825.039 740.507 826.894 737.132 827.355C729.429 828.426 725.305 822.465 724.97 815.45L724.937 814.677C710.936 808.38 694.812 801.912 680.596 796.188L680.692 807.839C684.613 811.983 688.46 819.727 683.725 823.636C672.72 832.724 654.717 822.48 668.139 807.639L668.351 797.182C656.916 800.837 635.531 809.735 624.578 814.798C624.509 823.641 618.715 830.263 609.669 826.538C606.728 825.342 604.387 823.021 603.167 820.091C600.472 813.518 605.516 809.117 610.704 806.157C620.521 800.555 631.388 796.744 641.964 792.846C615.211 788.613 588.956 781.68 563.602 772.154L563.531 775.436C563.524 780.187 563.051 788.338 564.683 792.534C565.346 794.937 566.036 797.261 566.446 799.724C567.121 805.425 567.281 810.82 567.508 816.548L548.688 816.688C547.266 816.651 546.795 816.513 545.557 817.233C544.328 819.796 544.841 823.038 544.872 826.143C540.126 826.015 535.125 825.774 530.405 826.051L530.213 816.594C519.278 816.375 496.908 816.044 486.784 817.387C493.749 810.906 504.671 803.495 513.279 799.708C514.213 803.726 515.013 805.518 516.698 809.305C516.648 805.29 515.303 800.826 515.822 797.633C507.05 797.925 481.233 787.053 473.046 782.869L472.915 781.511C464.998 779.888 456.781 777.127 448.775 775.897C447.772 775.743 446.191 775.318 445.152 775.07C443.592 773.587 443.974 774.402 443.865 772.063C444.317 770.587 444.614 768.853 444.929 767.323L445.975 764.359C425.398 756.118 417.273 748.523 410.509 727.559C406.139 724.229 395.82 719.576 390.714 716.786C383.46 712.823 377.35 709.028 370.356 704.594C366.97 702.09 363.504 699.696 359.962 697.417C341.224 705.489 328.714 703.319 312.236 692.032L312.709 779.651C312.758 794.718 313.065 810.637 312.697 825.592L296.569 825.665C296.505 818.701 295.978 803.241 296.663 796.84C295.756 796.649 294.855 796.434 293.96 796.196C291.783 795.604 291.162 795.014 290.062 793.068C289.986 788.659 293.138 788.556 296.665 788.206C295.939 779.652 296.467 761.399 296.467 752.373L296.483 681.404C262.298 654.389 218.872 598.711 244.469 553.971C246.266 550.93 242.52 545.061 241.227 541.379C234.772 523.003 230.756 505.021 227.433 485.91C226.024 480.412 225.797 473.605 224.924 467.96C221.444 445.46 223.734 424.07 223.773 401.686C206.148 423.833 198.77 437.497 187.3 463.976C170.589 465.114 158.421 463.306 143.343 455.926C142.086 459.319 139.779 487.787 132.238 481.101C129.049 473.151 135.372 458.989 136.388 451.857L136.486 451.122C126.092 440.142 120.151 428.962 119.639 413.499C116.036 419.265 116.745 444.877 106.878 450.382C103.714 452.54 98.1752 453.998 94.284 453.021C78.9287 449.165 85.3578 418.358 87.6545 408.059C101.866 344.333 149.34 286.141 203.322 251.286C202.383 245.369 204.048 228.149 205.219 222.165L208.802 219.625C207.07 218.838 206.616 218.583 205.084 217.459L204.968 216.456C206.503 214.421 208.522 213.467 210.734 212.123C210.65 210.618 210.764 212.464 208.831 210.448C212.413 199.668 219.436 190.404 228.025 183.276C261.318 155.647 296.878 175.126 334.414 166.196C350.98 162.255 367.972 147.548 383.119 138.535C392.569 130.875 425.658 117.761 437.465 113.906ZM484.394 771.539C483.025 774.165 481.314 777.843 480.51 780.678C494.091 784.708 508.064 788.822 521.783 792.504C523.107 792.859 523.817 793.81 524.307 795.064C524.768 797.033 525.441 799.459 526.989 800.764L527.653 800.264C527.964 797.894 527.047 796.115 526.22 793.81C527.698 793.027 529.259 792.319 530.774 791.605L530.752 791.207C530.139 781.561 524.082 764.408 521.365 753.68C519.485 753.598 517.621 753.429 515.746 753.276C514.593 753.231 511.843 752.749 511.288 753.822C505.362 765.243 496.435 768.736 484.394 771.539ZM488.669 484.676C489.977 478.382 488.859 475.445 486.17 469.783C492.581 467.183 495.588 466.19 500.806 461.717C500.71 461.285 500.023 460.247 499.755 459.8C505.827 454.16 516.921 454.033 525.557 452.485C543.029 449.802 562.488 446.188 580.038 444.688C590.581 420.929 598.718 394.621 609.861 371.145C610.414 367.91 616.908 349.49 618.329 345.165C619.359 342.377 623.351 334.296 623.639 333.026C623.047 330.047 622.872 328.264 622.627 325.234L621.525 318.215C612.962 320.037 607.914 319.749 600.067 316.485C598.559 315.639 596.445 313.915 595.008 312.818C590.521 306.733 587.9 299.693 584.921 292.743C583.741 290.837 584.288 291.068 582.586 290.418C577.135 286.597 578.597 275.402 579.553 269.716L579.33 269.221C579.379 266.639 579.733 264.655 580.132 262.131C570.34 258.401 566.207 255.389 565.042 244.346C565.115 240.535 565.85 239.005 567.462 235.738C562.228 235.133 556.69 235.211 550.949 234.51C552.527 232.5 554.776 229.914 556.626 228.027C577.03 207.218 588.576 176.476 619.941 170.102C624.673 169.14 632.025 164.49 632.899 159.801C636.237 141.887 614.223 134.693 601.7 131.237C595.021 129.168 562.036 127.096 559.351 134.259C556.324 120.283 549.896 103.898 538.799 94.5551C536.395 94.77 528.199 95.7348 526.215 95.3156C516.584 93.2805 506.039 88.5964 496.591 85.2766C486.456 81.7773 476.145 78.8088 465.7 76.3832C436.195 69.3192 405.996 65.5578 375.66 65.1681C295.519 64.2752 232.981 88.769 180.74 150.79C173.387 159.52 157.892 178.629 158.883 190.14C159.27 194.526 161.369 198.583 164.726 201.433C168.032 204.258 172.346 205.616 176.675 205.195C184.38 204.448 189.874 198.467 194.353 192.71C253.536 116.646 345.007 91.9707 437.465 113.906C425.658 117.761 392.569 130.875 383.119 138.535C367.972 147.548 350.98 162.255 334.414 166.196C296.878 175.126 261.318 155.647 228.025 183.276C219.436 190.404 212.413 199.668 208.831 210.448C210.764 212.464 210.65 210.618 210.734 212.123C208.522 213.467 206.503 214.421 204.968 216.456L205.084 217.459C206.616 218.583 207.07 218.838 208.802 219.625L205.219 222.165C204.048 228.149 202.383 245.369 203.322 251.286C149.34 286.141 101.866 344.333 87.6545 408.059C85.3578 418.358 78.9287 449.165 94.284 453.021C98.1752 453.998 103.714 452.54 106.878 450.382C116.745 444.877 116.036 419.265 119.639 413.499C120.151 428.962 126.092 440.142 136.486 451.122L136.388 451.857C135.372 458.989 129.049 473.151 132.238 481.101C139.779 487.787 142.086 459.319 143.343 455.926C158.421 463.306 170.589 465.114 187.3 463.976C198.77 437.497 206.148 423.833 223.773 401.686C223.734 424.07 221.444 445.46 224.924 467.96C225.797 473.605 226.024 480.412 227.433 485.91C230.756 505.021 234.772 523.003 241.227 541.379C242.52 545.061 246.266 550.93 244.469 553.971C247.555 556.041 253.05 572.929 256.741 578.531C259.812 572.674 263.781 566.922 267.514 561.439C277.185 547.826 284.832 540.328 296.546 528.393C296.638 525.272 296.76 523.384 296.292 520.287L295.473 519.683C291.962 519.012 276.193 519.386 271.679 519.432L271.644 498.398C288.564 498.158 306.325 498.43 323.304 498.458C352.621 500.003 383.668 497.654 412.493 498.537C418.627 498.658 424.762 498.748 430.897 498.806L431.01 489.423C439.054 489.707 447.379 489.855 455.407 489.385C457.276 489.437 459.445 489.433 461.276 489.626C464.213 489.986 468.513 490.063 471.455 489.806C473.265 489.682 477.729 489.194 479.25 489.695L488.669 484.676ZM633.996 745.597C640.913 748.38 655.921 750.649 663.706 752.423L663.727 737.191C654.49 739.938 643.299 743.512 633.996 745.597Z"/><path fill="#A1E5EC" d="M437.465 113.906C345.007 91.9707 253.536 116.646 194.353 192.71C189.874 198.467 184.38 204.448 176.675 205.195C172.346 205.616 168.032 204.258 164.726 201.433C161.369 198.583 159.27 194.526 158.883 190.14C157.892 178.629 173.387 159.52 180.74 150.79C232.981 88.769 295.519 64.2752 375.66 65.1681C405.996 65.5578 436.195 69.3192 465.7 76.3832C476.145 78.8088 486.456 81.7773 496.591 85.2766C506.039 88.5964 516.584 93.2805 526.215 95.3156C528.199 95.7348 536.395 94.77 538.799 94.5551C549.896 103.898 556.324 120.283 559.351 134.259C562.036 127.096 595.021 129.168 601.7 131.237C614.223 134.693 636.237 141.887 632.899 159.801C632.025 164.49 624.673 169.14 619.941 170.102C588.576 176.476 577.03 207.218 556.626 228.027C554.776 229.914 552.527 232.5 550.949 234.51C556.69 235.211 562.228 235.133 567.462 235.738C565.85 239.005 565.115 240.535 565.042 244.346C566.207 255.389 570.34 258.401 580.132 262.131C579.733 264.655 579.379 266.639 579.33 269.221L579.553 269.716C578.597 275.402 577.135 286.597 582.586 290.418C584.288 291.068 583.741 290.837 584.921 292.743C587.9 299.693 590.521 306.733 595.008 312.818C596.445 313.915 598.559 315.639 600.067 316.485C607.914 319.749 612.962 320.037 621.525 318.215L622.627 325.234C622.872 328.264 623.047 330.047 623.639 333.026C623.351 334.296 619.359 342.377 618.329 345.165C616.908 349.49 610.414 367.91 609.861 371.145C598.718 394.621 590.581 420.929 580.038 444.688C562.488 446.188 543.029 449.802 525.557 452.485C516.921 454.033 505.827 454.16 499.755 459.8C500.023 460.247 500.71 461.285 500.806 461.717C495.588 466.19 492.581 467.183 486.17 469.783C488.859 475.445 489.977 478.382 488.669 484.676L479.25 489.695C477.729 489.194 473.265 489.682 471.455 489.806C468.513 490.063 464.213 489.986 461.276 489.626C459.445 489.433 457.276 489.437 455.407 489.385C447.379 489.855 439.054 489.707 431.01 489.423L430.897 498.806C424.762 498.748 418.627 498.658 412.493 498.537C383.668 497.654 352.621 500.003 323.304 498.458C306.325 498.43 288.564 498.158 271.644 498.398L271.679 519.432C276.193 519.386 291.962 519.012 295.473 519.683L296.292 520.287C296.76 523.384 296.638 525.272 296.546 528.393C284.832 540.328 277.185 547.826 267.514 561.439C263.781 566.922 259.812 572.674 256.741 578.531C253.05 572.929 247.555 556.041 244.469 553.971C246.266 550.93 242.52 545.061 241.227 541.379C234.772 523.003 230.756 505.021 227.433 485.91C226.024 480.412 225.797 473.605 224.924 467.96C221.444 445.46 223.734 424.07 223.773 401.686C206.148 423.833 198.77 437.497 187.3 463.976C170.589 465.114 158.421 463.306 143.343 455.926C142.086 459.319 139.779 487.787 132.238 481.101C129.049 473.151 135.372 458.989 136.388 451.857L136.486 451.122C126.092 440.142 120.151 428.962 119.639 413.499C116.036 419.265 116.745 444.877 106.878 450.382C103.714 452.54 98.1752 453.998 94.284 453.021C78.9287 449.165 85.3578 418.358 87.6545 408.059C101.866 344.333 149.34 286.141 203.322 251.286C202.383 245.369 204.048 228.149 205.219 222.165L208.802 219.625C207.07 218.838 206.616 218.583 205.084 217.459L204.968 216.456C206.503 214.421 208.522 213.467 210.734 212.123C210.65 210.618 210.764 212.464 208.831 210.448C212.413 199.668 219.436 190.404 228.025 183.276C261.318 155.647 296.878 175.126 334.414 166.196C350.98 162.255 367.972 147.548 383.119 138.535C392.569 130.875 425.658 117.761 437.465 113.906ZM246.376 299.874C260.736 303.591 273.355 308.271 283.841 293.208C288.319 286.687 290.027 278.655 288.59 270.876C286.594 260.088 279.969 254.576 271.267 248.71C261.375 264.942 253.041 282.073 246.376 299.874ZM203.894 275.969C179.859 296.664 159.582 321.356 143.956 348.956C141.215 353.772 135.933 363.527 134.294 368.821C139.926 362.436 147.486 356.58 154.02 351.187C184.523 326.014 196.973 316.43 203.894 275.969Z"/><path fill="#3C4889" d="M274.103 267.974C276.406 267.182 278.926 268.33 279.839 270.588C280.751 272.846 279.737 275.423 277.53 276.452C275.995 277.169 274.191 276.979 272.838 275.961C271.486 274.942 270.806 273.26 271.071 271.587C271.336 269.915 272.502 268.525 274.103 267.974Z"/><path fill="#3C4889" d="M261.424 285.939C262.652 285.2 264.184 285.182 265.429 285.892C266.675 286.603 267.439 287.93 267.429 289.364C267.418 290.797 266.634 292.113 265.378 292.805C263.487 293.846 261.11 293.182 260.032 291.311C258.955 289.44 259.573 287.051 261.424 285.939Z"/><path fill="#76DAEE" d="M437.465 113.906C345.007 91.9707 253.536 116.646 194.353 192.71C189.874 198.467 184.38 204.448 176.675 205.195C172.346 205.616 168.032 204.258 164.726 201.433C161.369 198.583 159.27 194.526 158.883 190.14C157.892 178.629 173.387 159.52 180.74 150.79C232.981 88.769 295.519 64.2752 375.66 65.1681C405.996 65.5578 436.195 69.3192 465.7 76.3832C476.145 78.8088 486.456 81.7773 496.591 85.2766C506.039 88.5964 516.584 93.2805 526.215 95.3156C528.199 95.7348 536.395 94.77 538.799 94.5551C549.896 103.898 556.324 120.283 559.351 134.259C562.036 127.096 595.021 129.168 601.7 131.237C614.223 134.693 636.237 141.887 632.899 159.801C632.025 164.49 624.673 169.14 619.941 170.102C588.576 176.476 577.03 207.218 556.626 228.027C554.776 229.914 552.527 232.5 550.949 234.51C531.563 256.537 508.505 270.118 483.019 283.454C483.327 280.088 483.478 277.701 482.453 274.482C485.739 271.603 494.676 265.581 493.22 260.432L491.806 259.723C486.947 259.48 480.781 262.963 476.288 265.087C472.044 262.086 468.106 260.318 462.661 261.227C457.855 262.034 453.583 264.757 450.823 268.772C448.093 272.695 446.693 279.289 448.175 283.914C443.851 285.045 440.156 289.201 436.91 292.262C420.377 294.751 400.927 287.973 387.911 279.288C361.795 261.863 356.141 238.173 353.472 209.206C352.847 202.416 347.121 191.936 341.046 188.151C335.043 184.411 327.228 185.41 320.545 187.112C305.425 201.386 282.273 231.256 271.267 248.71C261.375 264.942 253.041 282.073 246.376 299.874C244.934 303.533 237.098 322.786 237.314 325.802C235.813 328.743 234.64 333.927 233.688 337.211C227.448 358.729 225.692 379.566 223.773 401.686C206.148 423.833 198.77 437.497 187.3 463.976C170.589 465.114 158.421 463.306 143.343 455.926C142.086 459.319 139.779 487.787 132.238 481.101C129.049 473.151 135.372 458.989 136.388 451.857L136.486 451.122C126.092 440.142 120.151 428.962 119.639 413.499C116.036 419.265 116.745 444.877 106.878 450.382C103.714 452.54 98.1752 453.998 94.284 453.021C78.9287 449.165 85.3578 418.358 87.6545 408.059C101.866 344.333 149.34 286.141 203.322 251.286C202.383 245.369 204.048 228.149 205.219 222.165L208.802 219.625C207.07 218.838 206.616 218.583 205.084 217.459L204.968 216.456C206.503 214.421 208.522 213.467 210.734 212.123C210.65 210.618 210.764 212.464 208.831 210.448C212.413 199.668 219.436 190.404 228.025 183.276C261.318 155.647 296.878 175.126 334.414 166.196C350.98 162.255 367.972 147.548 383.119 138.535C392.569 130.875 425.658 117.761 437.465 113.906ZM203.894 275.969C179.859 296.664 159.582 321.356 143.956 348.956C141.215 353.772 135.933 363.527 134.294 368.821C139.926 362.436 147.486 356.58 154.02 351.187C184.523 326.014 196.973 316.43 203.894 275.969Z"/><path fill="#43AADC" d="M437.465 113.906C345.007 91.9707 253.536 116.646 194.353 192.71C189.874 198.467 184.38 204.448 176.675 205.195C172.346 205.616 168.032 204.258 164.726 201.433C161.369 198.583 159.27 194.526 158.883 190.14C157.892 178.629 173.387 159.52 180.74 150.79C232.981 88.769 295.519 64.2752 375.66 65.1681C405.996 65.5578 436.195 69.3192 465.7 76.3832C476.145 78.8088 486.456 81.7773 496.591 85.2766C506.039 88.5964 516.584 93.2805 526.215 95.3156C528.199 95.7348 536.395 94.77 538.799 94.5551C549.896 103.898 556.324 120.283 559.351 134.259C568.302 185.332 536.963 229.904 486.144 238.51C463.057 242.399 439.373 236.934 420.326 223.323C401.259 209.655 387.511 189.354 383.971 165.943C382.554 156.574 382.823 147.947 383.119 138.535C392.569 130.875 425.658 117.761 437.465 113.906Z"/><path fill="#3C4889" d="M506.502 127.008C520.851 124.853 534.235 134.725 536.414 149.069C538.592 163.414 528.741 176.813 514.399 179.014C500.024 181.22 486.588 171.343 484.404 156.966C482.221 142.588 492.12 129.168 506.502 127.008Z"/><path fill="#3C4889" d="M427.377 156.662C438.859 155.414 449.169 163.736 450.37 175.222C451.571 186.708 443.205 196.982 431.713 198.135C420.289 199.282 410.087 190.977 408.893 179.558C407.699 168.138 415.962 157.903 427.377 156.662Z"/><path fill="#A1E5EC" d="M194.603 159.421C196.36 159.205 197.963 160.443 198.198 162.197C198.433 163.951 197.212 165.567 195.46 165.82C194.311 165.987 193.16 165.523 192.448 164.605C191.735 163.688 191.571 162.458 192.017 161.386C192.463 160.313 193.45 159.563 194.603 159.421Z"/><path fill="#F1F5F5" d="M453.883 197.158C454.953 196.971 456.041 197.378 456.725 198.222C457.41 199.066 457.584 200.214 457.18 201.223C456.776 202.231 455.857 202.942 454.78 203.08C453.165 203.287 451.68 202.167 451.437 200.557C451.193 198.948 452.279 197.438 453.883 197.158Z"/><path fill="#F1F5F5" d="M511.881 214.002C513.198 213.141 514.964 213.515 515.819 214.836C516.674 216.158 516.29 217.922 514.963 218.77C513.647 219.61 511.899 219.23 511.052 217.919C510.204 216.607 510.574 214.858 511.881 214.002Z"/><path fill="#F1F5F5" d="M398.363 165.112C399.273 164.664 400.353 164.743 401.188 165.318C402.023 165.893 402.482 166.874 402.389 167.883C402.295 168.892 401.664 169.772 400.737 170.184C399.343 170.804 397.71 170.194 397.063 168.812C396.416 167.43 396.994 165.785 398.363 165.112Z"/><path fill="#F1F5F5" d="M539.641 123.973C540.539 123.503 541.624 123.565 542.463 124.135C543.302 124.704 543.76 125.689 543.655 126.697C543.55 127.706 542.9 128.575 541.962 128.96C540.601 129.519 539.041 128.909 538.42 127.575C537.799 126.241 538.337 124.655 539.641 123.973Z"/><path fill="#F1F5F5" d="M483.397 107.227C484.597 107.067 485.727 107.828 486.029 108.999C486.332 110.17 485.712 111.383 484.585 111.824C483.726 112.16 482.75 111.971 482.077 111.339C481.405 110.707 481.156 109.745 481.438 108.866C481.72 107.988 482.483 107.35 483.397 107.227Z"/><path fill="#43AADC" d="M232.478 234.275C241.487 229.503 265.163 217.965 274.959 220.814C276.511 222.136 276.092 221.324 276.313 223.303C274.952 227.552 254.975 238.809 250.073 241.903C237.418 249.859 225.17 258.443 213.372 267.623C211.405 269.164 204.962 274.253 203.894 275.969C179.859 296.664 159.582 321.356 143.956 348.956C141.215 353.772 135.933 363.527 134.294 368.821C131.009 375.4 117.887 409.003 119.639 413.499C116.036 419.265 116.745 444.877 106.878 450.382C103.714 452.54 98.1752 453.998 94.284 453.021C78.9287 449.165 85.3578 418.358 87.6545 408.059C101.866 344.333 149.34 286.141 203.322 251.286C208.767 247.987 214.165 244.611 219.514 241.158L227.507 236.751L232.478 234.275Z"/><path fill="#43AADC" d="M136.486 451.122L136.639 450.755C140.687 440.801 142.986 429.466 147.225 419C150.698 410.424 157.47 400.321 160.208 392.815C164.686 380.54 162.041 380.171 174.134 371.18C176.421 369.479 183.468 358.165 186.25 355.631C194.728 346.286 211.276 327.32 220.791 320.316L221.31 320.361C217.838 324.864 212.916 329.415 209.069 333.864C198.057 346.6 188.023 358.229 179.117 372.553C184.856 374.251 189.399 375.757 192.477 381.597C194.526 385.577 194.863 390.22 193.409 394.453C190.415 403.225 181.369 408.457 172.422 404.954C168.578 403.448 166.499 401.166 163.81 398.208C156.657 413.253 150.786 428.875 146.26 444.907C145.669 446.994 143.615 454.066 143.343 455.926C142.086 459.319 139.779 487.787 132.238 481.101C129.049 473.151 135.372 458.989 136.388 451.857L136.486 451.122Z"/><path fill="#F1F5F5" d="M601.7 131.237L604.601 140.914C607.694 142.207 611.724 143.556 614.935 144.737C611.403 145.944 608.876 146.895 605.47 148.402C604.35 150.92 603.231 153.987 602.209 156.591L601.531 156.519C599.998 153.401 598.623 150.885 596.883 147.873C594.238 146.913 590.064 145.866 587.259 145.07C591.001 143.862 594.107 142.583 597.721 141.093C598.907 138.796 600.565 133.973 601.7 131.237Z"/><path fill="#F1F5F5" d="M226.78 235.605C227.682 232.911 228.194 230.115 230.234 228.377L231.218 228.738C232.4 230.761 232.292 231.939 232.478 234.275L227.507 236.751L226.78 235.605Z"/><path fill="#A1E5EC" d="M219.514 241.158C219.001 240.621 218.777 240.19 218.364 239.563L218.813 238.573C221.045 236.913 224.023 236.37 226.78 235.605L227.507 236.751L219.514 241.158Z"/><path fill="#F1F5F5" d="M383.536 213.653C384.339 214.659 386.629 220.973 387.334 222.693C389.807 223.766 392.846 224.772 395.422 225.693L387.695 229.076C386.187 232.21 385.091 235.402 383.906 238.665C382.429 234.57 381.453 232.413 379.463 228.532C377.023 227.526 373.567 226.47 370.993 225.602C374.015 224.868 377.139 223.745 380.103 222.748C381.316 220.058 382.506 216.491 383.536 213.653Z"/><path fill="#74BEE5" d="M247.444 201.668C254.386 199.677 263.635 196.699 270.531 195.184L270.979 195.633C267.23 197.34 253.019 201.199 249.016 202.291C248.014 205.814 247.783 208.456 244.671 210.236C242.874 210.457 242.89 210.523 241.165 210.129L242.182 209.226C246.787 208.518 246.675 205.762 247.444 201.668Z"/><path fill="#74BEE5" d="M302.983 185.806C305.245 185.484 306.707 185.44 308.95 185.382L308.547 186.378L309.433 185.769C307.63 187.332 304.911 187.912 302.546 188.659C300.333 189.134 298.689 189.583 296.42 188.878L296.007 187.57L295.815 187.68L295.776 187.557C297.958 186.116 300.314 186.127 302.983 185.806Z"/><path fill="#F1F5F5" d="M426.918 248.262C428.557 248.025 430.077 249.161 430.316 250.799C430.554 252.438 429.421 253.96 427.783 254.2C426.141 254.442 424.616 253.306 424.377 251.664C424.138 250.023 425.276 248.499 426.918 248.262Z"/><path fill="#43AADC" d="M241.219 204.166L243.576 203.487C243.985 205.537 242.069 204.512 242.182 209.226L241.165 210.129L238.598 208.265C237.288 206.946 237.851 208.712 235.738 206.758C235.082 206.783 240.681 204.372 241.219 204.166Z"/><path fill="#74BEE5" d="M238.598 208.265C237.288 206.946 237.851 208.712 235.738 206.758C235.082 206.783 240.681 204.372 241.219 204.166L238.598 208.265Z"/><path fill="#F1F5F5" d="M617.855 142.556C618.656 142.078 619.656 142.086 620.45 142.576C621.243 143.066 621.698 143.957 621.629 144.888C621.561 145.818 620.98 146.632 620.123 147.001C618.913 147.521 617.507 147.013 616.909 145.84C616.31 144.667 616.724 143.231 617.855 142.556Z"/><path fill="#74BEE5" d="M384.947 287.596C388.61 287.685 393.22 287.925 396.806 287.721C399.315 299.846 403.915 317.742 405.314 329.615C407.205 340.005 410.512 359.933 413.081 369.929L413.683 373.274C418.723 399.974 424.427 426.198 428.943 452.992C453.873 444.352 498.601 439.846 523.493 451.144C524.406 451.559 524.801 451.873 525.557 452.485C516.921 454.033 505.827 454.16 499.755 459.8C500.023 460.247 500.71 461.285 500.806 461.717C495.588 466.19 492.581 467.183 486.17 469.783C488.859 475.445 489.977 478.382 488.669 484.676L479.25 489.695C477.729 489.194 473.265 489.682 471.455 489.806C468.513 490.063 464.213 489.986 461.276 489.626C459.445 489.433 457.276 489.437 455.407 489.385C447.379 489.855 439.054 489.707 431.01 489.423L430.897 498.806C424.762 498.748 418.627 498.658 412.493 498.537C383.668 497.654 352.621 500.003 323.304 498.458C306.325 498.43 288.564 498.158 271.644 498.398L271.679 519.432C276.193 519.386 291.962 519.012 295.473 519.683L296.292 520.287C296.76 523.384 296.638 525.272 296.546 528.393C284.832 540.328 277.185 547.826 267.514 561.439C263.781 566.922 259.812 572.674 256.741 578.531C253.05 572.929 247.555 556.041 244.469 553.971C246.266 550.93 242.52 545.061 241.227 541.379C234.772 523.003 230.756 505.021 227.433 485.91C226.024 480.412 225.797 473.605 224.924 467.96C221.444 445.46 223.734 424.07 223.773 401.686C225.692 379.566 227.448 358.729 233.688 337.211C234.64 333.927 235.813 328.743 237.314 325.802C246.858 333.666 255.665 336.071 267.844 334.5C294.737 331.029 296.513 296.104 322.561 292.333C338.99 289.955 356.261 302.067 368.851 311.465C374.097 303.522 379.382 295.294 384.947 287.596Z"/><path fill="#848788" d="M384.947 287.596C388.61 287.685 393.22 287.925 396.806 287.721C399.315 299.846 403.915 317.742 405.314 329.615C407.205 340.005 410.512 359.933 413.081 369.929L413.683 373.274C418.723 399.974 424.427 426.198 428.943 452.992C453.873 444.352 498.601 439.846 523.493 451.144C524.406 451.559 524.801 451.873 525.557 452.485C516.921 454.033 505.827 454.16 499.755 459.8C500.023 460.247 500.71 461.285 500.806 461.717C495.588 466.19 492.581 467.183 486.17 469.783C488.859 475.445 489.977 478.382 488.669 484.676L479.25 489.695C477.729 489.194 473.265 489.682 471.455 489.806C468.513 490.063 464.213 489.986 461.276 489.626C459.445 489.433 457.276 489.437 455.407 489.385C447.379 489.855 439.054 489.707 431.01 489.423L430.897 498.806C424.762 498.748 418.627 498.658 412.493 498.537C383.668 497.654 352.621 500.003 323.304 498.458C327.492 498.123 333.71 498.336 338.052 498.357C337.343 495.153 337.031 490.606 338.023 487.478C348.537 454.323 362.135 420.574 375.197 388.357L362.246 323.397C364.509 319.139 366.404 315.633 368.851 311.465C374.097 303.522 379.382 295.294 384.947 287.596Z"/><path fill="#43AADC" d="M428.943 452.992C453.873 444.352 498.601 439.846 523.493 451.144C524.406 451.559 524.801 451.873 525.557 452.485C516.921 454.033 505.827 454.16 499.755 459.8C500.023 460.247 500.71 461.285 500.806 461.717C495.588 466.19 492.581 467.183 486.17 469.783C488.859 475.445 489.977 478.382 488.669 484.676L479.25 489.695C477.729 489.194 473.265 489.682 471.455 489.806C468.513 490.063 464.213 489.986 461.276 489.626C459.445 489.433 457.276 489.437 455.407 489.385C447.379 489.855 439.054 489.707 431.01 489.423L430.897 498.806C424.762 498.748 418.627 498.658 412.493 498.537L412.697 489.155C408.388 489.115 394.268 489.834 391.022 488.834C387.811 488.767 384.527 488.892 381.311 488.975C377.215 489.554 361.961 490.082 357.822 488.764C356.647 488.39 356.347 486.876 355.829 485.63C359.218 484.375 368.479 478.06 372.424 475.825C384.727 468.856 396.88 462.62 410.425 458.458C412.722 459.349 416.215 460.575 418.365 461.558L430.41 461.19C429.897 458.462 429.407 455.729 428.943 452.992Z"/><path fill="#E39E9C" d="M474.615 469.945C468.117 472.361 452.62 483.53 446.204 479.509C445.741 478.322 445.474 477.358 446.241 476.129C459.942 454.165 477.261 451.564 499.755 459.8C500.023 460.247 500.71 461.285 500.806 461.717C495.588 466.19 492.581 467.183 486.17 469.783C488.859 475.445 489.977 478.382 488.669 484.676L479.25 489.695C477.729 489.194 473.265 489.682 471.455 489.806C468.277 482.168 474.609 478.616 479.848 473.861C478.091 472.573 476.346 471.268 474.615 469.945Z"/><path fill="#3C4889" d="M455.407 489.385C455.277 486.406 454.959 487.403 456.212 485.128C458.081 484.011 457.099 484.269 459.26 484.305C461.177 485.59 460.473 484.779 461.506 486.787C461.442 487.751 461.396 488.666 461.276 489.626C459.445 489.433 457.276 489.437 455.407 489.385Z"/><path fill="#3C4889" d="M381.311 488.975C384.673 484.171 387.383 483.321 391.022 488.834C387.811 488.767 384.527 488.892 381.311 488.975Z"/><path fill="#B3B5B6" d="M384.947 287.596C388.61 287.685 393.22 287.925 396.806 287.721C399.315 299.846 403.915 317.742 405.314 329.615C407.205 340.005 410.512 359.933 413.081 369.929L413.683 373.274C418.723 399.974 424.427 426.198 428.943 452.992C429.407 455.729 429.897 458.462 430.41 461.19L418.365 461.558C417.301 452.607 415.241 443.308 413.692 434.38C410.026 413.258 405.244 392.231 401.314 371.187C397.866 351.922 394.235 332.691 390.423 313.494C389.243 307.496 386.717 292.974 384.947 287.596Z"/><path fill="#74BEE5" d="M379.862 410.736C388.163 440.029 378.919 442.079 410.425 458.458C396.88 462.62 384.727 468.856 372.424 475.825C368.479 478.06 359.218 484.375 355.829 485.63L353.625 480.311C355.599 473.365 360.935 460.596 363.648 453.594C369.161 439.349 374.566 425.063 379.862 410.736Z"/><path fill="#A1E5EC" d="M295.473 519.683L296.292 520.287C296.76 523.384 296.638 525.272 296.546 528.393C284.832 540.328 277.185 547.826 267.514 561.439C260.53 545.469 263.682 531.772 276.151 519.978C281.923 520.001 289.925 520.243 295.473 519.683Z"/><path fill="#43AADC" d="M274.05 396.91C274.835 397.985 276.427 401.55 277.081 402.922C278.362 403.619 280.2 404.478 281.135 405.492C276.222 408.717 277.042 407.997 274.85 413.317L274.016 413.57C273.822 413.138 273.622 412.71 273.416 412.283C271.198 407.711 269.706 407.097 265.165 405.554C266.162 405.155 267.149 404.731 268.125 404.281C272.111 402.415 272.696 400.728 274.05 396.91Z"/><path fill="#F1F5F5" d="M321.792 336.626C322.799 336.199 323.959 336.351 324.823 337.023C325.686 337.696 326.118 338.783 325.95 339.865C325.783 340.946 325.043 341.852 324.016 342.232C322.48 342.801 320.77 342.039 320.165 340.516C319.561 338.993 320.283 337.266 321.792 336.626Z"/><path fill="#F1F5F5" d="M309.542 476.119C310.436 475.543 311.573 475.502 312.505 476.013C313.438 476.523 314.016 477.504 314.011 478.567C314.006 479.63 313.42 480.605 312.483 481.108C311.113 481.843 309.406 481.365 308.616 480.026C307.827 478.686 308.235 476.962 309.542 476.119Z"/><path fill="#74BEE5" d="M595.008 312.818C596.445 313.915 598.559 315.639 600.067 316.485C607.914 319.749 612.962 320.037 621.525 318.215L622.627 325.234C622.872 328.264 623.047 330.047 623.639 333.026C623.351 334.296 619.359 342.377 618.329 345.165C616.908 349.49 610.414 367.91 609.861 371.145C598.718 394.621 590.581 420.929 580.038 444.688C562.488 446.188 543.029 449.802 525.557 452.485C524.801 451.873 524.406 451.559 523.493 451.144C498.601 439.846 453.873 444.352 428.943 452.992C424.427 426.198 418.723 399.974 413.683 373.274L413.081 369.929L413.445 369.401C416.354 367.578 451.646 364.187 457.975 363.284C503.94 356.727 564.079 352.347 595.008 312.818Z"/><path fill="#76DAEE" d="M595.008 312.818C596.445 313.915 598.559 315.639 600.067 316.485C593.165 323.577 585.882 331.134 577.531 336.625C545.848 357.458 503.085 362.569 466.219 366.76C448.791 368.741 430.865 371.836 413.683 373.274L413.081 369.929L413.445 369.401C416.354 367.578 451.646 364.187 457.975 363.284C503.94 356.727 564.079 352.347 595.008 312.818Z"/><path fill="#F1F5F5" d="M574.282 421.563C575.304 421.161 576.464 421.344 577.312 422.042C578.16 422.74 578.563 423.843 578.364 424.923C578.165 426.003 577.396 426.89 576.355 427.241C574.801 427.763 573.113 426.952 572.551 425.412C571.989 423.872 572.757 422.165 574.282 421.563Z"/><path fill="#F1F5F5" d="M488.173 411.465C489.55 410.862 491.159 411.439 491.838 412.78C492.517 414.122 492.031 415.76 490.729 416.513C489.82 417.039 488.695 417.019 487.805 416.462C486.915 415.904 486.406 414.9 486.483 413.852C486.56 412.805 487.21 411.886 488.173 411.465Z"/><path fill="#74BEE5" d="M405.314 329.615C426.388 341.065 463.094 348.099 486.955 346.269C529.711 342.99 557.582 323.834 584.921 292.743C587.9 299.693 590.521 306.733 595.008 312.818C564.079 352.347 503.94 356.727 457.975 363.284C451.646 364.187 416.354 367.578 413.445 369.401L413.081 369.929C410.512 359.933 407.205 340.005 405.314 329.615Z"/><path fill="#F1F5F5" d="M565.042 244.346C566.207 255.389 570.34 258.401 580.132 262.131C579.733 264.655 579.379 266.639 579.33 269.221C577.57 270.105 574.687 272.486 572.918 273.736C563.767 280.203 551.778 276.874 549.015 265.02C547.973 260.623 548.789 255.991 551.27 252.215C554.84 246.752 559.201 245.521 565.042 244.346Z"/><path fill="#43AADC" d="M448.175 283.914C446.693 279.289 448.093 272.695 450.823 268.772C453.583 264.757 457.855 262.034 462.661 261.227C468.106 260.318 472.044 262.086 476.288 265.087L479.04 267.765L481.122 271.511C472.261 277.821 461.367 285.153 451.587 290.073C450.107 288.406 449.451 286.763 448.46 284.765L448.175 283.914Z"/><path fill="#F1F5F5" d="M476.288 265.087C480.781 262.963 486.947 259.48 491.806 259.723L493.22 260.432C494.676 265.581 485.739 271.603 482.453 274.482C474.083 280.299 462.428 288.234 453.147 292.658C449.655 294.78 438.691 300.772 435.508 296.757C435.275 294.812 435.933 294.095 436.91 292.262C440.156 289.201 443.851 285.045 448.175 283.914L448.46 284.765C449.451 286.763 450.107 288.406 451.587 290.073C461.367 285.153 472.261 277.821 481.122 271.511L479.04 267.765L476.288 265.087Z"/><path fill="#76DAEE" d="M448.46 284.765C449.451 286.763 450.107 288.406 451.587 290.073C448.007 292.729 441.944 294.617 437.701 295.693C440.718 291.985 447.769 287.23 448.46 284.765Z"/><path fill="#76DAEE" d="M479.04 267.765C484.038 264.596 486.536 262.886 492.186 260.962C489.094 265.391 485.879 268.775 481.122 271.511L479.04 267.765Z"/><path fill="#43AADC" d="M482.453 274.482C483.478 277.701 483.327 280.088 483.019 283.454C478.041 296.626 464.547 304.479 453.147 292.658C462.428 288.234 474.083 280.299 482.453 274.482Z"/><path fill="#43AADC" d="M535.182 293.444C536.114 292.7 537.387 292.551 538.466 293.058C539.545 293.566 540.241 294.642 540.263 295.834C540.285 297.026 539.628 298.126 538.568 298.673C537.138 299.41 535.381 298.943 534.506 297.592C533.631 296.241 533.923 294.447 535.182 293.444Z"/><path fill="#F1F5F5" d="M337.618 231.525C339.098 230.954 340.764 231.662 341.38 233.124C341.997 234.586 341.34 236.273 339.898 236.934C338.925 237.381 337.786 237.262 336.925 236.624C336.065 235.986 335.62 234.931 335.764 233.87C335.908 232.809 336.618 231.91 337.618 231.525Z"/><path fill="#F1F5F5" d="M360.01 279.82C361.416 279.16 363.091 279.747 363.777 281.14C364.463 282.533 363.906 284.219 362.526 284.929C361.61 285.401 360.511 285.341 359.652 284.774C358.793 284.206 358.307 283.219 358.381 282.192C358.455 281.165 359.078 280.258 360.01 279.82Z"/><path fill="#F1F5F5" d="M445.191 325.222C446.477 324.578 448.043 325.034 448.781 326.268C449.52 327.503 449.181 329.098 448.005 329.926C447.162 330.519 446.058 330.591 445.146 330.112C444.233 329.633 443.665 328.684 443.675 327.653C443.685 326.623 444.27 325.684 445.191 325.222Z"/><path fill="#74BEE5" d="M578.028 96.6327C579.794 73.7462 594.604 72.3431 614.057 73.7666C635.745 75.3536 656.395 85.9201 670.897 102.124C677.213 109.403 678.484 114.753 678.646 124.111C688.482 127.736 698.115 132.905 707.303 137.911C766.219 170.007 810.99 228.357 840.657 287.82C847.666 303.494 853.551 315.653 857.902 332.312L857.788 332.712C858.324 335 858.438 336.025 859.831 337.917L859.915 338.486C865.402 357.415 870.878 382.374 872.052 402.104L872.203 405.217C874.065 414.049 873.646 429.423 873.623 438.828C854.972 437.916 838.753 451.49 836.366 470.008C833.978 488.526 846.225 505.769 864.497 509.615C863.031 512.622 862.369 516.646 861.523 519.983C859.805 526.755 857 537.784 853.616 543.85L851.384 549.024C847.438 558.644 843.156 569.417 838.365 578.533C830.597 592.131 822.387 607.277 813.626 620.035C808.799 626.496 803.963 633.183 798.658 639.239C794.093 644.263 789.416 650.312 785.115 654.916C781.258 669.693 772.509 679.087 758.558 680.703C755.768 681.026 746.861 689.183 744.192 691.5C735.067 698.711 720.552 708.821 710.295 714.289C702.18 719.206 694.214 723.558 685.898 728.108C686.324 732.532 686.613 751.083 685.886 755.311C685.154 761.855 685.639 776.92 685.662 784.435C692.059 787.268 714.41 797.278 719.899 798.253C728.062 800.879 745.029 805.311 746.982 815.001C747.479 817.519 746.935 820.131 745.475 822.241C743.533 825.039 740.507 826.894 737.132 827.355C729.429 828.426 725.305 822.465 724.97 815.45L724.937 814.677C710.936 808.38 694.812 801.912 680.596 796.188L680.692 807.839C684.613 811.983 688.46 819.727 683.725 823.636C672.72 832.724 654.717 822.48 668.139 807.639L668.351 797.182C656.916 800.837 635.531 809.735 624.578 814.798C624.509 823.641 618.715 830.263 609.669 826.538C606.728 825.342 604.387 823.021 603.167 820.091C600.472 813.518 605.516 809.117 610.704 806.157C620.521 800.555 631.388 796.744 641.964 792.846C615.211 788.613 588.956 781.68 563.602 772.154L563.735 723.599L563.143 696.624L562.55 648.44L562.477 639.54C566.277 637.874 569.572 631.229 575.937 628.901C575.138 627.031 575.514 624.6 573.857 622.984C577.911 622.272 591.707 622.521 597.484 621.97C633.909 618.496 677.855 619.968 712.178 607.14C717.003 605.337 724.385 599.282 728.393 595.985C736.995 587.642 739.892 580.228 742.9 569.068C744.146 565.03 744.904 560.693 745.73 556.534C747.052 543.718 747.359 532.245 747.33 519.373C744.581 478.283 738.404 428.268 724.523 389.746L722.252 383.566L722.012 382.942C712.423 358.497 690.411 328.624 665.587 318.066C662.731 316.987 659.966 314.844 657.144 314.736C654.931 319.791 630.536 333.954 624.679 334.394C623.808 333.69 624.034 334.037 623.639 333.026C623.047 330.047 622.872 328.264 622.627 325.234L621.525 318.215C612.962 320.037 607.914 319.749 600.067 316.485C598.559 315.639 596.445 313.915 595.008 312.818C590.521 306.733 587.9 299.693 584.921 292.743C583.741 290.837 584.288 291.068 582.586 290.418C577.135 286.597 578.597 275.402 579.553 269.716L579.33 269.221C579.379 266.639 579.733 264.655 580.132 262.131C570.34 258.401 566.207 255.389 565.042 244.346C565.115 240.535 565.85 239.005 567.462 235.738C562.228 235.133 556.69 235.211 550.949 234.51C552.527 232.5 554.776 229.914 556.626 228.027C577.03 207.218 588.576 176.476 619.941 170.102C624.673 169.14 632.025 164.49 632.899 159.801C636.237 141.887 614.223 134.693 601.7 131.237C595.021 129.168 562.036 127.096 559.351 134.259C556.324 120.283 549.896 103.898 538.799 94.5551C547.571 94.434 553.869 94.4423 562.554 95.2309C564.904 95.4441 576.913 96.6838 578.028 96.6327ZM663.706 752.423L663.727 737.191C654.49 739.938 643.299 743.512 633.996 745.597C640.913 748.38 655.921 750.649 663.706 752.423Z"/><path fill="#2C2E3F" d="M747.33 519.373C747.749 511.232 750.673 495.019 751.729 486.115L756.71 444.427C757.817 435.372 758.553 426.429 760.939 417.595C765.229 401.714 778.44 391.345 795.103 396.553C808.028 395.38 808.44 398.298 807.278 410.624C806.403 419.896 805.305 429.222 804.293 438.483C801.757 462.819 798.939 487.125 795.839 511.396C794.403 524.298 792.878 537.19 791.267 550.071L786.956 587.1C786.446 591.842 785.36 600.293 785.288 604.772C790.86 606.247 809.295 616.393 813.626 620.035C808.799 626.496 803.963 633.183 798.658 639.239C794.093 644.263 789.416 650.312 785.115 654.916C781.258 669.693 772.509 679.087 758.558 680.703C755.768 681.026 746.861 689.183 744.192 691.5C735.067 698.711 720.552 708.821 710.295 714.289C702.18 719.206 694.214 723.558 685.898 728.108C686.324 732.532 686.613 751.083 685.886 755.311C685.154 761.855 685.639 776.92 685.662 784.435C692.059 787.268 714.41 797.278 719.899 798.253C728.062 800.879 745.029 805.311 746.982 815.001C747.479 817.519 746.935 820.131 745.475 822.241C743.533 825.039 740.507 826.894 737.132 827.355C729.429 828.426 725.305 822.465 724.97 815.45L724.937 814.677C710.936 808.38 694.812 801.912 680.596 796.188L680.692 807.839C684.613 811.983 688.46 819.727 683.725 823.636C672.72 832.724 654.717 822.48 668.139 807.639L668.351 797.182C656.916 800.837 635.531 809.735 624.578 814.798C624.509 823.641 618.715 830.263 609.669 826.538C606.728 825.342 604.387 823.021 603.167 820.091C600.472 813.518 605.516 809.117 610.704 806.157C620.521 800.555 631.388 796.744 641.964 792.846C615.211 788.613 588.956 781.68 563.602 772.154L563.735 723.599L563.143 696.624L562.55 648.44L562.477 639.54C566.277 637.874 569.572 631.229 575.937 628.901C575.138 627.031 575.514 624.6 573.857 622.984C577.911 622.272 591.707 622.521 597.484 621.97C633.909 618.496 677.855 619.968 712.178 607.14C717.003 605.337 724.385 599.282 728.393 595.985C736.995 587.642 739.892 580.228 742.9 569.068C744.146 565.03 744.904 560.693 745.73 556.534C747.052 543.718 747.359 532.245 747.33 519.373ZM663.706 752.423L663.727 737.191C654.49 739.938 643.299 743.512 633.996 745.597C640.913 748.38 655.921 750.649 663.706 752.423Z"/><path fill="#74BEE5" d="M562.477 639.54C566.277 637.874 569.572 631.229 575.937 628.901L577.892 633.826L578.584 633.904C579.49 636.229 580.368 639.525 582.602 640.897C586.651 643.381 636.9 642.322 646.471 642.129C653.809 642.055 661.506 641.858 668.815 641.949C668.81 648.87 669.232 701.572 667.919 703.707C667.099 703.948 664.422 704.573 664.334 705.037C663.001 712.042 663.709 730.066 663.727 737.191C654.49 739.938 643.299 743.512 633.996 745.597C640.913 748.38 655.921 750.649 663.706 752.423C663.653 762.931 663.513 773.604 663.61 784.095C660.576 785.461 644.692 792.583 641.964 792.846C615.211 788.613 588.956 781.68 563.602 772.154L563.735 723.599L563.143 696.624L562.55 648.44L562.477 639.54Z"/><path fill="#A1E5EC" d="M562.477 639.54C566.277 637.874 569.572 631.229 575.937 628.901L577.892 633.826L578.584 633.904C579.49 636.229 580.368 639.525 582.602 640.897C586.651 643.381 636.9 642.322 646.471 642.129C634.48 666.835 621.996 684.967 594.399 695.612C587.239 698.374 571.314 700.872 564.221 697.91L563.143 696.624L562.55 648.44L562.477 639.54Z"/><path fill="#DBF4F3" d="M562.477 639.54C566.277 637.874 569.572 631.229 575.937 628.901L577.892 633.826C576.546 636.01 564.412 648.018 562.55 648.44L562.477 639.54Z"/><path fill="#F1F5F5" d="M617.107 664.538C618.14 664.232 619.259 664.521 620.015 665.289C620.772 666.057 621.043 667.179 620.722 668.208C620.401 669.237 619.539 670.006 618.48 670.207C616.951 670.497 615.462 669.538 615.096 668.025C614.73 666.513 615.614 664.979 617.107 664.538Z"/><path fill="#43AADC" d="M563.735 723.599C564.48 732.293 564.035 746.043 563.982 755.253C585.349 753.726 605.92 752.01 626.803 747.066C629.025 746.54 631.769 745.942 633.996 745.597C640.913 748.38 655.921 750.649 663.706 752.423C663.653 762.931 663.513 773.604 663.61 784.095C660.576 785.461 644.692 792.583 641.964 792.846C615.211 788.613 588.956 781.68 563.602 772.154L563.735 723.599Z"/><path fill="#F1F5F5" d="M629.15 703.824C630.085 703.393 631.182 703.515 631.999 704.142C632.815 704.769 633.217 705.797 633.043 706.812C632.868 707.827 632.145 708.661 631.165 708.978C629.77 709.431 628.263 708.717 627.729 707.351C627.194 705.985 627.817 704.438 629.15 703.824Z"/><path fill="#76DAEE" d="M785.288 604.772C790.86 606.247 809.295 616.393 813.626 620.035C808.799 626.496 803.963 633.183 798.658 639.239C794.093 644.263 789.416 650.312 785.115 654.916C781.258 669.693 772.509 679.087 758.558 680.703C755.768 681.026 746.861 689.183 744.192 691.5C735.067 698.711 720.552 708.821 710.295 714.289C702.18 719.206 694.214 723.558 685.898 728.108C685.538 721.194 685.731 712.208 685.664 705.122C684.203 704.804 682.865 704.453 681.42 704.069C679.794 701.986 680.866 648.651 680.989 641.966L729.841 642.131C764.589 642.111 780.45 644.617 785.288 604.772Z"/><path fill="#3C4889" d="M710.295 714.289C682.918 684.894 730.178 655.968 744.192 691.5C735.067 698.711 720.552 708.821 710.295 714.289Z"/><path fill="#3C4889" d="M785.115 654.916C782.375 656.765 778.46 661.13 776.251 661.969L775.64 661.344C774.01 655.303 775.439 649.773 779.397 645.18C785.028 638.645 790.963 638.556 798.658 639.239C794.093 644.263 789.416 650.312 785.115 654.916Z"/><path fill="#F1F5F5" d="M733.203 667.474C734.053 666.937 735.128 666.902 736.011 667.383C736.894 667.865 737.447 668.786 737.456 669.792C737.465 670.797 736.929 671.729 736.055 672.227C734.746 672.972 733.082 672.535 732.307 671.244C731.532 669.952 731.93 668.279 733.203 667.474Z"/><path fill="#F1F5F5" d="M787.558 622.994C789.001 622.775 790.347 623.771 790.561 625.215C790.775 626.658 789.775 628.001 788.33 628.21C786.892 628.418 785.557 627.423 785.345 625.986C785.132 624.549 786.122 623.211 787.558 622.994Z"/><path fill="#43AADC" d="M747.33 519.373C747.749 511.232 750.673 495.019 751.729 486.115L756.71 444.427C757.817 435.372 758.553 426.429 760.939 417.595C765.229 401.714 778.44 391.345 795.103 396.553C790.678 426 788.008 459.936 784.476 489.999C781.42 514.665 778.52 539.35 775.774 564.052C774.658 574.208 773.133 585.83 772.428 595.935L771.844 599.429C759.92 599.414 738.695 600.061 728.393 595.985C736.995 587.642 739.892 580.228 742.9 569.068C744.146 565.03 744.904 560.693 745.73 556.534C747.052 543.718 747.359 532.245 747.33 519.373Z"/><path fill="#74BEE5" d="M742.9 569.068C744.146 565.03 744.904 560.693 745.73 556.534L745.833 557.3C746.953 565.925 745.657 574.314 749.113 582.59C753.322 592.667 762.566 594.627 772.428 595.935L771.844 599.429C759.92 599.414 738.695 600.061 728.393 595.985C736.995 587.642 739.892 580.228 742.9 569.068Z"/><path fill="#43AADC" d="M573.857 622.984C577.911 622.272 591.707 622.521 597.484 621.97C633.909 618.496 677.855 619.968 712.178 607.14C717.003 605.337 724.385 599.282 728.393 595.985C738.695 600.061 759.92 599.414 771.844 599.429C769.768 629.676 758.871 629.221 732.411 629.079L704.114 629.028L613.224 629.345C603.99 629.351 591.54 628.778 582.322 629.746C581.135 629.871 579.257 632.763 578.584 633.904L577.892 633.826L575.937 628.901C575.138 627.031 575.514 624.6 573.857 622.984Z"/><path fill="#ECB1AE" d="M580.132 262.131C596.254 266.26 610.77 246.529 623.163 267.503C623.742 268.486 624.306 269.477 624.857 270.475C626.79 270.235 630.481 269.576 632.205 269.987L632.527 270.382C643.45 258.316 651.027 277.081 641.49 285.506C640.855 286.061 640.199 286.591 639.523 287.096C642.529 294.51 643.365 297.652 651.217 300.988C651.56 301.133 651.904 301.277 652.248 301.418C653.396 305.044 655.252 311.726 657.144 314.736C654.931 319.791 630.536 333.954 624.679 334.394C623.808 333.69 624.034 334.037 623.639 333.026C623.047 330.047 622.872 328.264 622.627 325.234L621.525 318.215C612.962 320.037 607.914 319.749 600.067 316.485C598.559 315.639 596.445 313.915 595.008 312.818C590.521 306.733 587.9 299.693 584.921 292.743C583.741 290.837 584.288 291.068 582.586 290.418C577.135 286.597 578.597 275.402 579.553 269.716L579.33 269.221C579.379 266.639 579.733 264.655 580.132 262.131Z"/><path fill="#ECB1AE" d="M580.132 262.131C596.254 266.26 610.77 246.529 623.163 267.503C623.742 268.486 624.306 269.477 624.857 270.475C616.015 271.722 607.42 273.419 598.656 275.093C593.398 263.011 587.915 266.431 585.271 277.548C583.681 274.342 582.62 271.695 579.553 269.716L579.33 269.221C579.379 266.639 579.733 264.655 580.132 262.131Z"/><path fill="#2C2E3F" d="M585.271 277.548C587.915 266.431 593.398 263.011 598.656 275.093C607.42 273.419 616.015 271.722 624.857 270.475C626.79 270.235 630.481 269.576 632.205 269.987L632.527 270.382L631.754 271.081C629.327 271.384 626.898 271.66 624.465 271.908C616.203 273.751 606.823 275.422 598.775 277.616C599.31 282.861 599.898 289.281 594.267 291.897C587.971 291.805 587.456 283.093 584.205 278.897C584.522 281.32 584.816 282.285 583.832 284.587C583.85 287.171 583.709 288.025 582.586 290.418C577.135 286.597 578.597 275.402 579.553 269.716C582.62 271.695 583.681 274.342 585.271 277.548Z"/><path fill="#F1F5F5" d="M583.832 284.587C583.019 286.077 583.258 286.213 582.023 286.916C579.822 285.133 579.68 277.68 581.627 275.477C583.216 276.336 583.227 277.092 584.205 278.897C584.522 281.32 584.816 282.285 583.832 284.587Z"/><path fill="#ECB1AE" d="M590.813 269.089C599.267 272.106 599.378 284.208 593.379 290.079C585.089 288.422 585.652 274.877 590.813 269.089Z"/><path fill="#E39E9C" d="M621.525 318.215C627.029 314.729 633.634 309.755 639.189 307.15C635.362 312.323 628.411 322.54 622.627 325.234L621.525 318.215Z"/><path fill="#946A53" d="M624.465 271.908C626.898 271.66 629.327 271.384 631.754 271.081C631.277 273.802 631.027 276.905 629.386 279.051L628.273 279.66C625.294 278.431 625.125 274.832 624.465 271.908Z"/><path fill="#946A53" d="M567.462 235.738C572.056 231.412 576.307 228.688 582.944 228.847C588.61 228.983 594.372 230.655 600.198 229.729C618.524 226.817 636.428 218.265 651.582 234.376C658.992 242.255 663.007 255.005 662.344 265.875C661.626 277.644 656.034 290.104 652.248 301.418C651.904 301.277 651.56 301.133 651.217 300.988C643.365 297.652 642.529 294.51 639.523 287.096C640.199 286.591 640.855 286.061 641.49 285.506C651.027 277.081 643.45 258.316 632.527 270.382L632.205 269.987C630.481 269.576 626.79 270.235 624.857 270.475C624.306 269.477 623.742 268.486 623.163 267.503C610.77 246.529 596.254 266.26 580.132 262.131C570.34 258.401 566.207 255.389 565.042 244.346C565.115 240.535 565.85 239.005 567.462 235.738Z"/><path fill="#76DAEE" d="M578.028 96.6327C579.794 73.7462 594.604 72.3431 614.057 73.7666C635.745 75.3536 656.395 85.9201 670.897 102.124C677.213 109.403 678.484 114.753 678.646 124.111C650.028 109.486 609.804 100.496 578.028 96.6327Z"/><path fill="#74BEE5" d="M791.267 550.071C803.678 554.802 811.95 559.526 822.631 567.418C825.618 569.626 835.679 577.386 838.365 578.533C830.597 592.131 822.387 607.277 813.626 620.035C809.295 616.393 790.86 606.247 785.288 604.772C785.36 600.293 786.446 591.842 786.956 587.1L791.267 550.071Z"/><path fill="#F1F5F5" d="M808.783 591.418C810.291 591.04 811.825 591.94 812.23 593.441C812.636 594.942 811.766 596.492 810.273 596.926C809.281 597.215 808.211 596.945 807.475 596.221C806.739 595.498 806.451 594.433 806.722 593.436C806.993 592.44 807.781 591.668 808.783 591.418Z"/><path fill="#43AADC" d="M795.839 511.396C801.927 514.504 809.556 517.275 815.407 520.465C827.007 526.79 842.838 539.167 851.384 549.024C847.438 558.644 843.156 569.417 838.365 578.533C835.679 577.386 825.618 569.626 822.631 567.418C811.95 559.526 803.678 554.802 791.267 550.071C792.878 537.19 794.403 524.298 795.839 511.396Z"/><path fill="#43AADC" d="M721.261 262.258C729.113 266.386 739.499 283.174 744.01 291.208C762.208 323.617 751.977 365.635 724.523 389.746L722.252 383.566C734.232 369.834 743.149 356.943 746.495 338.392C751.441 310.966 738.54 282.964 721.261 262.258Z"/><path fill="#43AADC" d="M793.193 387.787C798.444 380.811 821.314 366.803 830.123 359.35C841.318 349.877 847.597 343.123 857.788 332.712C858.324 335 858.438 336.025 859.831 337.917L859.915 338.486C857.349 338.805 847.668 349.581 844.751 352.21C831.364 364.276 809.819 381.37 793.193 387.787Z"/><path fill="#43AADC" d="M793.44 300.239C793.904 300.72 796.093 305.771 796.528 306.726C798.683 307.551 800.216 308.28 802.26 309.279L796.647 311.807L793.706 318.644C792.739 315.589 791.981 313.902 790.213 311.283L784.294 309.06L790.568 306.639C791.687 304.705 792.575 302.327 793.44 300.239Z"/><path fill="#76DAEE" d="M807.842 253.928C810.288 252.952 813.07 254.076 814.151 256.477C815.232 258.879 814.23 261.706 811.877 262.891C810.261 263.703 808.33 263.565 806.848 262.529C805.365 261.494 804.571 259.728 804.778 257.932C804.986 256.136 806.162 254.598 807.842 253.928Z"/><path fill="#A1E5EC" d="M800.53 344.531C801.639 344.188 802.847 344.479 803.678 345.289C804.51 346.099 804.832 347.3 804.517 348.417C804.202 349.535 803.301 350.391 802.169 350.648C800.509 351.025 798.847 350.023 798.406 348.378C797.965 346.734 798.903 345.035 800.53 344.531Z"/><path fill="#F1F5F5" d="M826.973 289.361C828.465 289.057 829.947 289.923 830.414 291.373C830.88 292.822 830.182 294.391 828.793 295.014C827.747 295.483 826.525 295.313 825.647 294.575C824.77 293.837 824.392 292.663 824.674 291.552C824.957 290.441 825.85 289.59 826.973 289.361Z"/><path fill="#F1F5F5" d="M827.654 426.675C828.983 425.785 830.777 426.109 831.712 427.405C832.646 428.702 832.385 430.507 831.121 431.485C830.263 432.149 829.112 432.292 828.119 431.859C827.125 431.425 826.447 430.484 826.35 429.404C826.253 428.324 826.753 427.278 827.654 426.675Z"/><path fill="#F1F5F5" d="M676.103 229.185C676.982 228.579 678.123 228.5 679.077 228.981C680.032 229.461 680.648 230.423 680.686 231.491C680.723 232.559 680.175 233.562 679.257 234.108C677.901 234.913 676.15 234.499 675.299 233.171C674.449 231.843 674.804 230.08 676.103 229.185Z"/><path fill="#9A9D9E" d="M657.144 314.736C659.966 314.844 662.731 316.987 665.587 318.066C690.411 328.624 712.423 358.497 722.012 382.942L722.252 383.566L724.523 389.746C738.404 428.268 744.581 478.283 747.33 519.373C747.359 532.245 747.052 543.718 745.73 556.534C744.904 560.693 744.146 565.03 742.9 569.068C741.456 567.595 659.982 545.648 649.441 542.594C639.03 539.546 628.669 536.328 618.362 532.942L618.889 532.619C620.611 529.464 621.23 503.499 621.439 498.438C608.923 498.271 528.815 493.771 522.834 488.54C523.226 482.628 523.546 472.59 521.654 467.137C514.921 463.66 505.522 466.028 500.806 461.717C500.71 461.285 500.023 460.247 499.755 459.8C505.827 454.16 516.921 454.033 525.557 452.485C543.029 449.802 562.488 446.188 580.038 444.688C590.581 420.929 598.718 394.621 609.861 371.145C610.414 367.91 616.908 349.49 618.329 345.165C619.359 342.377 623.351 334.296 623.639 333.026C624.034 334.037 623.808 333.69 624.679 334.394C630.536 333.954 654.931 319.791 657.144 314.736Z"/><path fill="#848788" d="M580.038 444.688C590.581 420.929 598.718 394.621 609.861 371.145C610.148 377.923 609.083 387.575 609.068 394.941C609.113 412.931 610.462 430.894 613.104 448.688C585.092 455.263 556.225 458.388 527.815 462.53C526.24 462.759 523.614 463.119 522.345 464.011C522.027 465.187 521.822 465.906 521.654 467.137C514.921 463.66 505.522 466.028 500.806 461.717C500.71 461.285 500.023 460.247 499.755 459.8C505.827 454.16 516.921 454.033 525.557 452.485C543.029 449.802 562.488 446.188 580.038 444.688Z"/><path fill="#B3B5B6" d="M657.144 314.736C659.966 314.844 662.731 316.987 665.587 318.066C657.018 332.301 634.073 342.418 618.329 345.165C619.359 342.377 623.351 334.296 623.639 333.026C624.034 334.037 623.808 333.69 624.679 334.394C630.536 333.954 654.931 319.791 657.144 314.736Z"/><path fill="#43AADC" d="M312.238 519.682C336.451 519.155 362.109 519.735 386.492 519.733L530.034 519.586C530.026 532.352 529.887 545.021 530.331 557.782C484.146 572.447 490.308 577.188 480.746 620.819C476.859 620.074 472.534 624.421 468.781 625.276C462.861 626.625 453.253 623.879 448.329 628.089C440.122 635.107 438.886 642.813 430.353 650.626C415.915 658.928 403.001 671.636 390.885 682.94C383.58 689.754 377.416 697.596 370.356 704.594C366.97 702.09 363.504 699.696 359.962 697.417C341.224 705.489 328.714 703.319 312.236 692.032L312.176 656.245L312.238 519.682Z"/><path fill="#76DAEE" d="M312.176 656.245C316.392 660.312 320.546 664.437 324.761 668.502C335.739 679.088 348.079 687.961 359.962 697.417C341.224 705.489 328.714 703.319 312.236 692.032L312.176 656.245Z"/><path fill="#3C4889" d="M424.025 522.077C459.21 519.43 449.299 568.372 415.977 579.206C381.699 582.305 388.754 530.227 424.025 522.077Z"/><path fill="#3C4889" d="M337.428 586.394C340.234 585.535 343.286 586.268 345.395 588.308C347.504 590.348 348.338 593.374 347.572 596.206C346.806 599.039 344.562 601.232 341.712 601.932C337.473 602.972 333.177 600.452 332.017 596.245C330.857 592.038 333.255 587.672 337.428 586.394Z"/><path fill="#3C4889" d="M342.788 649.533C347.163 648.932 351.203 651.973 351.834 656.343C352.465 660.713 349.452 664.774 345.086 665.435C340.677 666.103 336.567 663.054 335.93 658.641C335.292 654.228 338.371 650.14 342.788 649.533Z"/><path fill="#3C4889" d="M485.645 522.872C489.945 522.444 493.79 525.552 494.273 529.846C494.755 534.139 491.696 538.023 487.409 538.561C484.586 538.914 481.791 537.722 480.093 535.44C478.395 533.158 478.056 530.139 479.205 527.537C480.354 524.936 482.815 523.153 485.645 522.872Z"/><path fill="#3C4889" d="M443.163 584.805C445.353 583.99 447.813 584.42 449.598 585.929C451.383 587.438 452.215 589.792 451.775 592.088C451.336 594.383 449.692 596.263 447.476 597.006C444.126 598.129 440.495 596.358 439.318 593.027C438.14 589.696 439.851 586.037 443.163 584.805Z"/><path fill="#3C4889" d="M360.524 562.267C363.534 560.93 367.057 562.291 368.386 565.304C369.715 568.317 368.344 571.836 365.327 573.157C362.322 574.472 358.819 573.108 357.496 570.106C356.172 567.105 357.526 563.599 360.524 562.267Z"/><path fill="#3C4889" d="M461.188 557.71C463.477 557.155 465.785 558.557 466.348 560.844C466.911 563.132 465.518 565.444 463.232 566.016C460.934 566.59 458.608 565.188 458.042 562.889C457.476 560.589 458.886 558.268 461.188 557.71Z"/><path fill="#3C4889" d="M391.115 620.177C393.246 619.689 395.388 620.948 395.998 623.047C396.608 625.147 395.474 627.358 393.413 628.087C391.97 628.598 390.363 628.268 389.238 627.23C388.114 626.192 387.656 624.617 388.049 623.138C388.443 621.659 389.623 620.519 391.115 620.177Z"/><path fill="#F1F5F5" d="M336.644 539.687C337.989 538.937 339.686 539.405 340.457 540.737C341.229 542.069 340.79 543.773 339.47 544.566C338.598 545.091 337.51 545.105 336.624 544.601C335.739 544.098 335.193 543.157 335.197 542.138C335.202 541.12 335.755 540.183 336.644 539.687Z"/><path fill="#F1F5F5" d="M414.198 633.136C415.487 632.344 417.174 632.755 417.955 634.051C418.736 635.346 418.311 637.03 417.008 637.8C415.722 638.56 414.063 638.141 413.291 636.861C412.52 635.581 412.924 633.919 414.198 633.136Z"/><path fill="#76DAEE" d="M430.353 650.626C438.886 642.813 440.122 635.107 448.329 628.089C453.253 623.879 462.861 626.625 468.781 625.276C472.534 624.421 476.859 620.074 480.746 620.819C474.991 646.585 468.022 672.469 461.659 698.113C458.124 712.361 453.822 727.54 451.018 741.885C449.761 746.918 446.464 759.383 445.975 764.359C425.398 756.118 417.273 748.523 410.509 727.559C406.139 724.229 395.82 719.576 390.714 716.786C383.46 712.823 377.35 709.028 370.356 704.594C377.416 697.596 383.58 689.754 390.885 682.94C403.001 671.636 415.915 658.928 430.353 650.626Z"/><path fill="#74BEE5" d="M430.353 650.626C438.886 642.813 440.122 635.107 448.329 628.089C453.253 623.879 462.861 626.625 468.781 625.276C472.534 624.421 476.859 620.074 480.746 620.819C474.991 646.585 468.022 672.469 461.659 698.113C458.124 712.361 453.822 727.54 451.018 741.885C449.352 741.182 446.885 740.457 445.131 739.904C435.878 736.991 427.045 733.47 418.076 729.796C420.242 729.673 422.37 729.526 424.529 729.311C445.203 727.246 457.682 708.015 454.969 688.082C452.635 670.925 443.465 660.795 430.353 650.626Z"/><defs><linearGradient id="gradient_0" gradientUnits="userSpaceOnUse" x1="526.29175" y1="458.40259" x2="588.38843" y2="551.10651"><stop offset="0" stop-color="#53A7D2"/><stop offset="1" stop-color="#7CC3EA"/></linearGradient></defs><path fill="url(#gradient_0)" d="M500.806 461.717C505.522 466.028 514.921 463.66 521.654 467.137C523.546 472.59 523.226 482.628 522.834 488.54C528.815 493.771 608.923 498.271 621.439 498.438C621.23 503.499 620.611 529.464 618.889 532.619L618.362 532.942C607.288 530.863 595.682 535.943 585.172 539.342C571.751 543.688 558.367 548.145 545.019 552.712L545.054 519.673C550.883 519.54 556.917 519.575 562.772 519.9C571.382 520.377 569.14 512.878 569.433 507.064C569.569 504.352 569.347 501.171 569.298 498.402C550.899 498.325 532.499 498.356 514.1 498.493L514.063 490.527C509.255 490.436 482.506 490.396 479.25 489.695L488.669 484.676C489.977 478.382 488.859 475.445 486.17 469.783C492.581 467.183 495.588 466.19 500.806 461.717Z"/><path fill="#ECB1AE" d="M500.806 461.717C505.522 466.028 514.921 463.66 521.654 467.137C523.546 472.59 523.226 482.628 522.834 488.54C517.982 486.843 512.208 485.818 507.124 484.004C499.4 481.246 495.903 480.322 488.669 484.676C489.977 478.382 488.859 475.445 486.17 469.783C492.581 467.183 495.588 466.19 500.806 461.717Z"/><path fill="#76DAEE" d="M244.469 553.971C247.555 556.041 253.05 572.929 256.741 578.531C262.418 590.18 268.947 601.393 276.274 612.081C280.572 618.32 285.648 624.853 289.741 631.055L295.925 628.78C295.933 634.746 295.704 644.808 296.35 650.415C296.439 660.599 296.255 671.307 296.483 681.404C262.298 654.389 218.872 598.711 244.469 553.971Z"/><path fill="#43AADC" d="M296.546 528.393L296.458 610.713C296.457 622.441 296.964 639.025 296.35 650.415C295.704 644.808 295.933 634.746 295.925 628.78L289.741 631.055C285.648 624.853 280.572 618.32 276.274 612.081C268.947 601.393 262.418 590.18 256.741 578.531C259.812 572.674 263.781 566.922 267.514 561.439C277.185 547.826 284.832 540.328 296.546 528.393Z"/><path fill="#B3B5B6" d="M471.455 489.806C473.265 489.682 477.729 489.194 479.25 489.695C482.506 490.396 509.255 490.436 514.063 490.527L514.1 498.493C486.367 498.899 458.631 499.004 430.897 498.806L431.01 489.423C439.054 489.707 447.379 489.855 455.407 489.385C457.276 489.437 459.445 489.433 461.276 489.626C464.213 489.986 468.513 490.063 471.455 489.806Z"/><path fill="#74BEE5" d="M493.799 751.183C499.448 738.711 505.236 726.303 511.161 713.96C513.252 720.885 519.887 745.507 520.882 752.488C519.711 753.761 517.488 753.364 515.746 753.276C514.593 753.231 511.843 752.749 511.288 753.822C509.845 753.013 496.424 751.53 493.799 751.183Z"/><path fill="#ECB1AE" d="M545.068 777.797L563.531 775.436C563.524 780.187 563.051 788.338 564.683 792.534C556.936 796.616 552.354 795.648 545.467 790.7C545.054 786.932 545.126 781.687 545.068 777.797Z"/><path fill="#43AADC" d="M480.51 780.678C494.091 784.708 508.064 788.822 521.783 792.504C523.107 792.859 523.817 793.81 524.307 795.064C522.076 795.494 521.798 795.601 519.861 796.789C519.101 797.928 519.247 798.846 519.217 800.236L518.309 800.027C517.089 798.069 517.755 798.569 515.822 797.633C507.05 797.925 481.233 787.053 473.046 782.869L472.915 781.511C476.037 781.846 478.037 782.45 480.51 780.678Z"/><path fill="#76DAEE" d="M493.799 751.183C496.424 751.53 509.845 753.013 511.288 753.822C505.362 765.243 496.435 768.736 484.394 771.539C487.602 765.012 490.746 757.828 493.799 751.183Z"/><path fill="#43AADC" d="M566.446 799.724C567.121 805.425 567.281 810.82 567.508 816.548L548.688 816.688C552.219 804.704 555.425 803.618 566.446 799.724Z"/><path fill="#A1E5EC" d="M562.265 623.212L573.857 622.984C575.514 624.6 575.138 627.031 575.937 628.901C569.572 631.229 566.277 637.874 562.477 639.54L562.265 623.212Z"/><path fill="#43AADC" d="M296.663 796.84C295.756 796.649 294.855 796.434 293.96 796.196C291.783 795.604 291.162 795.014 290.062 793.068C289.986 788.659 293.138 788.556 296.665 788.206C296.834 791.526 296.949 793.544 296.663 796.84Z"/><path fill="#A1E5EC" d="M977.685 349.727C977.879 344.645 977.429 330.652 982.691 328.188C990.028 330.086 986.574 350.226 985.681 356.181C994.278 367.448 999.49 379.627 997.647 394.049C994.426 419.255 972.272 434.154 963.756 456.529C955.863 477.268 958.035 498.77 956.306 520.234C985.575 484.087 1007.51 434.238 1010.08 387.55C1010.7 376.265 1008.42 357.72 1017.85 349.871C1019.3 348.647 1020.99 347.732 1022.81 347.182C1023.59 346.944 1024.4 346.772 1025.21 346.67C1029.49 346.143 1033.79 347.375 1037.15 350.084C1046.78 357.834 1046.14 374.333 1045.63 385.601C1042.92 445.482 1012.23 500.461 971.519 543.083C966.84 547.982 946.377 566.246 944.958 569.393C936.064 595.912 892.636 645.724 862.581 642.58C855.373 641.769 848.766 638.176 844.17 632.566C840.753 628.417 838.645 623.348 838.113 618C835.149 588.084 880.35 576.05 853.616 543.85C857 537.784 859.805 526.755 861.523 519.983C862.369 516.646 863.031 512.622 864.497 509.615C846.225 505.769 833.978 488.526 836.366 470.008C838.753 451.49 854.972 437.916 873.623 438.828C873.646 429.423 874.065 414.049 872.203 405.217L872.052 402.104L877.421 397.829C888.178 389.043 888.144 383.569 894.071 371.486C896.541 366.449 900.546 361.178 904.051 356.74C918.284 360.261 918.115 360.785 922.677 374.28C926.243 361.535 927.72 358.648 941.64 356.835C937.314 355.551 930.669 354.041 927.446 351.088C924.288 348.194 924.688 346.017 924.653 342.026C944.925 333.482 960.424 337.924 977.685 349.727Z"/><path fill="#43AADC" d="M956.306 520.234C985.575 484.087 1007.51 434.238 1010.08 387.55C1010.7 376.265 1008.42 357.72 1017.85 349.871C1019.3 348.647 1020.99 347.732 1022.81 347.182C1023.59 346.944 1024.4 346.772 1025.21 346.67C1029.49 346.143 1033.79 347.375 1037.15 350.084C1046.78 357.834 1046.14 374.333 1045.63 385.601C1042.92 445.482 1012.23 500.461 971.519 543.083C966.84 547.982 946.377 566.246 944.958 569.393C940.819 570.757 928.188 580.875 923.913 584.212C909.174 595.718 860.763 627.07 841.909 622.061L840.874 621.162C841.303 618.431 843.79 616.594 846.121 615.058C863.86 603.369 881.323 591.974 898.324 579.191C901.938 575.871 905.918 572.639 909.691 569.477C911.984 567.746 917.513 562.382 919.76 560.286C933.064 547.875 945.464 534.857 956.306 520.234Z"/><path fill="#43AADC" d="M873.623 438.828C887.076 439.487 899.021 447.639 904.536 459.927C910.051 472.215 908.202 486.558 899.751 497.045C891.3 507.533 877.678 512.39 864.497 509.615C846.225 505.769 833.978 488.526 836.366 470.008C838.753 451.49 854.972 437.916 873.623 438.828Z"/><path fill="#3C4889" d="M861.678 481.846C865.191 480.496 869.138 482.206 870.557 485.691C871.975 489.177 870.343 493.157 866.885 494.643C864.587 495.63 861.935 495.299 859.951 493.778C857.967 492.256 856.96 489.781 857.318 487.306C857.676 484.831 859.343 482.743 861.678 481.846Z"/><path fill="#3C4889" d="M855.423 456.452C858.525 455.165 862.085 456.617 863.401 459.706C864.718 462.796 863.298 466.369 860.221 467.714C857.103 469.076 853.472 467.634 852.139 464.504C850.806 461.374 852.281 457.757 855.423 456.452Z"/><path fill="#3C4889" d="M894.359 467.766C896.468 466.674 899.063 467.492 900.165 469.595C901.267 471.698 900.462 474.297 898.364 475.409C896.252 476.529 893.631 475.718 892.521 473.6C891.411 471.482 892.235 468.865 894.359 467.766Z"/><path fill="#3C4889" d="M886.469 488.558C888.483 488.042 890.537 489.243 891.076 491.251C891.615 493.259 890.437 495.326 888.436 495.888C887.12 496.257 885.708 495.891 884.738 494.929C883.768 493.966 883.39 492.557 883.748 491.239C884.106 489.921 885.146 488.897 886.469 488.558Z"/><path fill="#3C4889" d="M883.289 450.886C885.109 450.347 887.032 451.337 887.649 453.133C888.266 454.928 887.359 456.891 885.592 457.585C884.379 458.062 883.002 457.834 882.007 456.993C881.012 456.152 880.558 454.832 880.826 453.557C881.093 452.282 882.039 451.256 883.289 450.886Z"/><path fill="#43AADC" d="M977.685 349.727C977.879 344.645 977.429 330.652 982.691 328.188C990.028 330.086 986.574 350.226 985.681 356.181C985.642 356.298 985.604 356.415 985.565 356.532C979.253 393.213 966.185 427.353 944.542 458.261C939.874 465.051 934.918 471.64 929.688 478.008C927.476 480.652 915.674 493.619 914.901 495.12L913.888 494.277C942.652 458.999 964.817 420.332 973.5 375.366C975.178 366.675 976.92 358.595 977.685 349.727Z"/><path fill="#F1F5F5" d="M894.364 565.287C896.5 561.493 897.136 558.615 898.256 554.484C899.721 558.165 901.077 561.888 902.322 565.65C904.183 566.861 907.578 568.429 909.691 569.477C905.918 572.639 901.938 575.871 898.324 579.191C897.28 578.47 896.453 577.054 895.579 576.019C891.806 571.554 889.879 571.221 884.497 569.468C888.702 568.024 890.492 567.378 894.364 565.287Z"/><path fill="#DBF4F3" d="M877.421 397.829L878.297 398.795C877.961 401.17 875.863 402.474 873.974 403.902C873.387 404.345 872.797 404.783 872.203 405.217L872.052 402.104L877.421 397.829Z"/><path fill="#76DAEE" d="M913.888 494.277L914.901 495.12C914.138 496.139 913.937 496.191 912.896 496.956L912.558 496.357L913.888 494.277Z"/><path fill="#43AADC" d="M954.878 392.316C957.317 391.866 959.661 393.472 960.123 395.91C960.585 398.347 958.99 400.699 956.555 401.172C954.103 401.649 951.731 400.041 951.266 397.587C950.801 395.132 952.421 392.768 954.878 392.316Z"/><path fill="#43AADC" d="M914.68 528.448C916.207 527.798 917.977 528.444 918.726 529.926C919.474 531.407 918.944 533.216 917.515 534.059C916.503 534.655 915.244 534.64 914.247 534.018C913.251 533.397 912.683 532.273 912.774 531.102C912.865 529.931 913.6 528.909 914.68 528.448Z"/><path fill="#2B77BC" d="M840.657 287.82C860.625 258.941 868.236 223.285 861.8 188.771C858.269 170.076 851.359 152.181 841.409 135.964C836.665 128.048 831.418 120.443 825.702 113.197C816.198 101.309 786.798 72.3131 797.938 56.2847C811.97 37.7221 835.866 55.9668 848.755 65.5078C898.99 102.693 936.484 158.224 947.572 220.176C955.537 264.673 942.348 310.398 917.891 347.84C913.642 354.345 907.509 352.703 904.051 356.74C900.546 361.178 896.541 366.449 894.071 371.486C888.144 383.569 888.178 389.043 877.421 397.829L872.052 402.104C870.878 382.374 865.402 357.415 859.915 338.486L859.831 337.917C858.438 336.025 858.324 335 857.788 332.712L857.902 332.312C853.551 315.653 847.666 303.494 840.657 287.82Z"/><path fill="#43AADC" d="M875.953 131.181C884.31 140.728 890.98 153.283 896.642 164.756C921.628 215.384 911.593 275.407 876.04 318.336C873.872 320.955 860.798 335.812 859.831 337.917C858.438 336.025 858.324 335 857.788 332.712L857.902 332.312C861.894 331.09 877.174 310.698 880.115 306.452C905.805 269.359 914.135 224.402 900.887 181.066C897.555 169.961 892.838 159.321 886.845 149.397C883.627 144.068 878.427 136.514 875.953 131.181Z"/><path fill="#43AADC" d="M888.927 332.737C891.131 332.558 893.096 334.12 893.419 336.307C893.742 338.494 892.313 340.557 890.152 341.024C888.621 341.354 887.035 340.805 886.035 339.6C885.036 338.395 884.791 336.734 885.399 335.291C886.006 333.848 887.367 332.864 888.927 332.737Z"/><path fill="#A1E5EC" d="M883.936 190.903C885.627 190.553 887.293 191.599 887.712 193.274C888.131 194.949 887.153 196.656 885.496 197.143C884.363 197.475 883.139 197.161 882.306 196.323C881.474 195.485 881.167 194.259 881.507 193.128C881.847 191.997 882.779 191.143 883.936 190.903Z"/><path fill="#A1E5EC" d="M849.163 100.428C850.142 99.7292 851.429 99.6356 852.498 100.185C853.568 100.734 854.241 101.834 854.244 103.037C854.246 104.239 853.577 105.342 852.51 105.896C851.013 106.673 849.169 106.16 848.289 104.721C847.408 103.282 847.79 101.407 849.163 100.428Z"/><path fill="#2B77BC" d="M223.773 401.686C223.734 424.07 221.444 445.46 224.924 467.96C225.797 473.605 226.024 480.412 227.433 485.91C220.74 495.564 213.112 516.213 210.13 527.583C195.621 581.154 202.247 638.25 228.638 687.075C234.95 698.678 243.43 709.61 251.039 721.033C260.31 734.953 249.744 750.513 234.359 745.519C224.208 741.204 216.065 727.893 210.305 719.307C159.13 643.01 152.974 548.705 187.3 463.976C198.77 437.497 206.148 423.833 223.773 401.686Z"/><path fill="#76DAEE" d="M226.91 712.981C228.42 712.215 230.265 712.802 231.055 714.299C231.845 715.796 231.287 717.65 229.803 718.464C228.821 719.001 227.626 718.969 226.675 718.377C225.725 717.786 225.167 716.729 225.216 715.61C225.264 714.492 225.912 713.487 226.91 712.981Z"/><path fill="#43AADC" d="M685.886 755.311C751.833 760.546 809.024 744.303 859.812 700.934C865.142 696.408 870.256 691.635 875.138 686.629C885.317 676.322 902.702 652.182 917.109 669.829C920.134 673.534 921.511 678.043 920.804 682.854C916.331 707.102 878.803 738.527 860.77 752.194C830.106 775.722 793.775 790.741 755.447 795.734C743.86 797.154 730.066 796.789 719.899 798.253C714.41 797.278 692.059 787.268 685.662 784.435C685.639 776.92 685.154 761.855 685.886 755.311Z"/><path fill="#76DAEE" d="M889.379 697.166C891.027 696.313 893.054 696.965 893.896 698.619C894.737 700.272 894.072 702.294 892.413 703.125C890.769 703.948 888.77 703.29 887.936 701.652C887.102 700.014 887.747 698.01 889.379 697.166Z"/><path fill="#43AADC" d="M448.775 775.897C456.781 777.127 464.998 779.888 472.915 781.511L473.046 782.869C471.821 786.582 471.433 788.276 470.766 792.146L471.304 798.568C471.343 802.996 471.615 811.486 471.117 815.534C469.864 816.309 468.171 816.184 466.635 816.242C463.239 816.205 457.105 815.949 453.984 816.486C455.096 817.429 455.198 817.175 456.873 817.49C467.084 820.571 500.48 828.839 507.324 833.255C510.214 835.12 512.913 837.78 513.501 841.307C514.12 845.022 513.749 849.207 511.363 852.256C509.163 855.066 505.622 856.535 502.151 856.946C495.935 857.683 489.049 855.718 483.024 854.294C453.795 847.387 424.487 834.842 400.655 816.408C397.924 816.096 393.121 817.153 391.6 814.665C392.291 812.835 393.478 812.357 395.16 811.255C402.103 806.636 409.298 802.409 416.712 798.592C418.239 801.623 419.893 805.112 421.602 807.999C420.753 804.478 419.55 800.714 419.65 797.166L420.229 796.449C422.052 796.949 422.832 797.807 424.002 799.493C425.002 802.011 426.526 804.076 428.02 806.347C426.984 803.244 426.524 801.719 424.937 798.844C424.485 796.968 424.375 796.655 424.394 794.754C425.556 793.213 425.104 793.705 427.349 793.061C428.155 797.735 430.512 800.401 433.317 804.17C432.32 801.45 430.071 794.608 428.139 792.871C430.932 789.843 440.084 785.394 444.502 786.852C446.243 782.907 447.542 780.067 448.775 775.897Z"/><path fill="#2C2E3F" d="M448.775 775.897C456.781 777.127 464.998 779.888 472.915 781.511L473.046 782.869C471.821 786.582 471.433 788.276 470.766 792.146L471.304 798.568C463.774 801.608 457.217 803.3 453.816 811.262C453.158 812.808 452.586 814.388 452.103 815.997C436.236 816.022 416.304 815.542 400.655 816.408C397.924 816.096 393.121 817.153 391.6 814.665C392.291 812.835 393.478 812.357 395.16 811.255C402.103 806.636 409.298 802.409 416.712 798.592C418.239 801.623 419.893 805.112 421.602 807.999C420.753 804.478 419.55 800.714 419.65 797.166L420.229 796.449C422.052 796.949 422.832 797.807 424.002 799.493C425.002 802.011 426.526 804.076 428.02 806.347C426.984 803.244 426.524 801.719 424.937 798.844C424.485 796.968 424.375 796.655 424.394 794.754C425.556 793.213 425.104 793.705 427.349 793.061C428.155 797.735 430.512 800.401 433.317 804.17C432.32 801.45 430.071 794.608 428.139 792.871C430.932 789.843 440.084 785.394 444.502 786.852C446.243 782.907 447.542 780.067 448.775 775.897Z"/><path fill="#ECB1AE" d="M448.775 775.897C456.781 777.127 464.998 779.888 472.915 781.511L473.046 782.869C471.821 786.582 471.433 788.276 470.766 792.146C458.043 793.732 453.999 800.325 444.502 786.852C446.243 782.907 447.542 780.067 448.775 775.897Z"/><path fill="#43AADC" d="M657.276 26.5059C662.878 26.3067 677.324 32.0243 683.029 34.4982C735.455 57.3994 776.078 103.765 799.11 155.419C800.941 159.526 807.175 173.342 801.695 175.213C799.359 174.877 798.793 174.29 796.851 172.885C790.517 164.879 783.406 152.787 777.115 144.178C762.754 124.525 747.21 106.896 728.059 91.8097C714.299 80.7841 699.196 71.549 683.11 64.3256C673.863 60.1497 663.148 56.1095 654.406 51.0617C642.481 44.1757 644.082 31.4495 657.276 26.5059Z"/><path fill="#43AADC" d="M395.16 811.255C368.962 789.904 345.157 763.484 328.555 733.883C326.193 729.67 321.75 720.726 323.18 715.839C324.32 714.96 324.82 714.57 326.495 714.775C332.321 715.49 340.81 728.603 344.899 733.45C359.381 750.612 373.457 765.494 391.001 779.543C398.257 785.355 411.534 792.639 416.712 798.592C409.298 802.409 402.103 806.636 395.16 811.255Z"/><path fill="#43AADC" d="M797.076 668.324C848.369 659.961 896.542 645.402 940.442 616.726C943.942 614.44 950.719 610.793 954.851 612.338L955.709 613.342C955.223 619.469 933.647 630.671 928.026 633.473C887.297 653.779 843.904 663.89 799.089 669.778L797.076 668.324Z"/><path fill="#3C4889" d="M764.653 706.78C773.163 706.099 780.64 712.386 781.428 720.886C782.217 729.387 776.025 736.941 767.534 737.837C761.946 738.427 756.472 735.965 753.205 731.393C749.939 726.821 749.384 720.845 751.754 715.75C754.124 710.654 759.051 707.228 764.653 706.78Z"/><path fill="#43AADC" d="M632.946 64.1433C636.311 64.1259 638.864 64.961 641.989 66.2701C673.366 79.4124 703.205 102.438 725.632 127.835C727.867 130.366 734.101 137.673 735.293 140.379C731.593 137.159 725.162 130.107 721.212 126.316C705.404 111.145 692.367 100.609 673.502 89.3192C665.978 84.7983 658.19 80.7313 650.18 77.1402C644.428 74.5689 631.309 71.6537 632.946 64.1433Z"/><path fill="#43AADC" d="M225.383 623.328C241.117 620.932 252.609 635.863 242.039 649.348C239.064 651.959 237.719 652.756 234.271 654.794C231.311 646.747 226.209 631.448 225.383 623.328Z"/><path fill="#43AADC" d="M205.219 222.165C200.237 224.485 177.148 239.691 174.032 235.211C174.398 222.946 206.173 216.556 208.831 210.448C210.764 212.464 210.65 210.618 210.734 212.123C208.522 213.467 206.503 214.421 204.968 216.456L205.084 217.459C206.616 218.583 207.07 218.838 208.802 219.625L205.219 222.165Z"/><path fill="#43AADC" d="M221.541 625.325C222.88 626.756 230.267 651.562 230.442 654.357C228.995 654.88 227.009 654.297 225.411 654.01C223.183 652.939 221.436 652.012 219.607 650.287C216.513 647.349 214.786 643.253 214.841 638.986C214.888 633.131 217.5 629.173 221.541 625.325Z"/><path fill="#74BEE5" d="M966.487 311.339C970.505 310.002 974.85 312.152 976.222 316.158C977.595 320.164 975.482 324.527 971.488 325.935C967.445 327.36 963.015 325.215 961.625 321.159C960.235 317.103 962.419 312.693 966.487 311.339Z"/><path fill="#43AADC" d="M791.423 702.76C795.403 702.37 798.977 705.198 799.513 709.16C800.049 713.122 797.354 716.798 793.414 717.479C790.733 717.943 788.013 716.905 786.323 714.773C784.633 712.641 784.243 709.756 785.306 707.252C786.369 704.748 788.716 703.025 791.423 702.76Z"/><path fill="#3C4889" d="M338.764 135.828C342.769 135.609 346.224 138.61 346.568 142.606C346.912 146.602 344.02 150.149 340.037 150.618C337.346 150.935 334.697 149.762 333.123 147.557C331.549 145.352 331.301 142.466 332.475 140.025C333.649 137.583 336.059 135.975 338.764 135.828Z"/><defs><linearGradient id="gradient_1" gradientUnits="userSpaceOnUse" x1="426.71176" y1="756.52911" x2="424.89487" y2="759.89917"><stop offset="0" stop-color="#85C4D9" stop-opacity="0.95686275"/><stop offset="1" stop-color="#76C5E3"/></linearGradient></defs><path fill="url(#gradient_1)" d="M404.043 743.124C416.751 752.652 430.461 760.766 444.929 767.323C444.614 768.853 444.317 770.587 443.865 772.063C441.17 769.635 428.605 762.419 424.689 759.781C417.645 755.037 411.174 749.59 404.357 744.942L404.043 743.124Z"/><path fill="#43AADC" d="M838.436 226.491C840.825 225.347 843.691 226.314 844.897 228.673C846.103 231.031 845.211 233.921 842.884 235.188C841.325 236.038 839.427 235.974 837.927 235.022C836.428 234.07 835.563 232.38 835.669 230.607C835.774 228.834 836.834 227.258 838.436 226.491Z"/><path fill="#43AADC" d="M219.288 544.754C220.762 543.946 222.558 543.997 223.984 544.889C225.409 545.78 226.242 547.373 226.16 549.052C226.079 550.731 225.096 552.236 223.591 552.985C221.326 554.113 218.576 553.221 217.404 550.979C216.232 548.737 217.069 545.97 219.288 544.754Z"/><path fill="#43AADC" d="M1017.62 280.363C1019.14 279.621 1020.94 279.775 1022.32 280.762C1023.69 281.749 1024.41 283.411 1024.19 285.089C1023.98 286.766 1022.85 288.189 1021.27 288.792C1018.98 289.669 1016.39 288.582 1015.42 286.325C1014.44 284.069 1015.41 281.442 1017.62 280.363Z"/><path fill="#43AADC" d="M93.2359 509.202C95.6864 508.759 98.0295 510.393 98.4601 512.846C98.8907 515.298 97.2445 517.633 94.7897 518.051C92.3522 518.467 90.0372 516.835 89.6096 514.4C89.182 511.964 90.8027 509.641 93.2359 509.202Z"/><path fill="#43AADC" d="M815.174 144.863C817.46 144.075 819.958 145.25 820.809 147.513C821.66 149.777 820.555 152.306 818.316 153.22C816.811 153.834 815.091 153.582 813.826 152.562C812.561 151.542 811.949 149.916 812.229 148.315C812.509 146.714 813.637 145.392 815.174 144.863Z"/><path fill="#43AADC" d="M569.86 851.848C571.244 851.036 572.959 851.041 574.338 851.862C575.716 852.683 576.538 854.189 576.483 855.792C576.428 857.396 575.505 858.842 574.073 859.566C571.953 860.639 569.364 859.834 568.226 857.749C567.087 855.663 567.811 853.051 569.86 851.848Z"/><path fill="#43AADC" d="M952.709 625.073C954.298 624.624 956.005 625.112 957.116 626.335C958.227 627.557 958.55 629.303 957.951 630.842C957.351 632.381 955.932 633.449 954.287 633.598C952.048 633.801 950.022 632.266 949.613 630.055C949.204 627.844 950.545 625.685 952.709 625.073Z"/><path fill="#43AADC" d="M594.238 16.5201C595.7 16.1685 597.239 16.6343 598.26 17.7381C599.281 18.8418 599.627 20.4113 599.163 21.8418C598.699 23.2723 597.498 24.3406 596.023 24.635C593.804 25.0782 591.638 23.6634 591.151 21.4529C590.665 19.2424 592.037 17.0493 594.238 16.5201Z"/><path fill="#43AADC" d="M128.644 244.898C130.679 244.199 132.898 245.259 133.634 247.28C134.37 249.302 133.35 251.54 131.342 252.312C130.011 252.824 128.507 252.577 127.408 251.667C126.31 250.757 125.789 249.324 126.045 247.921C126.301 246.518 127.295 245.362 128.644 244.898Z"/><path fill="#43AADC" d="M403.813 767.464C405.614 766.584 407.788 767.331 408.667 769.133C409.546 770.935 408.797 773.108 406.995 773.986C405.194 774.864 403.023 774.115 402.144 772.315C401.266 770.515 402.013 768.343 403.813 767.464Z"/><path fill="#43AADC" d="M997.783 594.202C998.985 593.66 1000.39 593.822 1001.43 594.624C1002.48 595.425 1003 596.737 1002.79 598.039C1002.58 599.341 1001.67 600.422 1000.43 600.853C998.618 601.48 996.635 600.572 995.927 598.792C995.219 597.012 996.037 594.99 997.783 594.202Z"/><path fill="#F1F5F5" fill-opacity="0.015686275" d="M428.139 792.871C430.071 794.608 432.32 801.45 433.317 804.17C430.512 800.401 428.155 797.735 427.349 793.061L428.139 792.871Z"/><path fill="#B3B5B6" fill-opacity="0.88627452" d="M793.661 670.174C791.677 670.466 787.574 670.805 785.701 670.209C787.272 669.18 789.58 669.203 791.554 669.01L793.661 670.174Z"/><path fill="#DBF4F3" fill-opacity="0.17647059" d="M456.873 817.49C455.198 817.175 455.096 817.429 453.984 816.486C457.105 815.949 463.239 816.205 466.635 816.242C463.102 817.099 458.761 816.397 456.873 817.49Z"/><path fill="#74BEE5" fill-opacity="0.98431373" d="M791.554 669.01L797.076 668.324L799.089 669.778L793.661 670.174L791.554 669.01Z"/><path fill="#08080A" fill-opacity="0.023529412" d="M231.384 160.445C232.074 160.854 231.756 160.624 232.481 161.286L233.048 161.813C233.653 161.806 235.137 163.102 235.802 163.589C234.725 164.025 234.639 164.023 233.483 164.201C231.971 163.094 232.119 162.445 231.384 160.445Z"/><path fill="#F1F5F5" fill-opacity="0.031372551" d="M424.937 798.844C426.524 801.719 426.984 803.244 428.02 806.347C426.526 804.076 425.002 802.011 424.002 799.493L424.937 798.844Z"/><path fill="#DBF4F3" fill-opacity="0.47843137" d="M404.357 744.942C402.61 743.433 402.697 743.94 402.011 742.04L402.669 741.865L404.043 743.124L404.357 744.942Z"/></svg>