<?xml version="1.0" encoding="utf-8" ?><svg xmlns="http://www.w3.org/2000/svg" xmlns:xlink="http://www.w3.org/1999/xlink" width="512" height="512" viewBox="0 0 512 512"><path fill="#28B6F6" d="M424.625 64.0884C430.7 63.1825 438.337 66.2566 442.36 70.7976C446.507 75.3669 448.112 80.714 447.856 86.8066C447.465 96.0962 441.428 100.741 435.282 106.895L422.373 119.8L379.75 162.376L317.844 224.305L297.812 244.357C294.215 247.953 289.867 252.503 286.11 255.832C289.891 259.37 293.902 263.657 297.568 267.378L313.28 283.11L369.155 339.007L418.5 388.336L432.503 402.347C439.844 409.621 448.301 415.649 447.935 427.331C447.391 444.685 427.486 453.936 413.798 443.544C411.028 441.441 407.97 438.089 405.404 435.525L391.084 421.073L349.639 379.606L288.431 318.418C281.28 311.393 274.189 304.308 267.157 297.164C263.778 293.789 259.195 289.591 256.123 286.078L149.056 393.078L115.629 426.496C111.357 430.771 102.622 440.059 98.2682 443.559C95.348 445.903 91.7923 447.317 88.0602 447.62C81.1848 448.845 74.1095 445.778 69.4927 440.747C62.6689 433.312 62.2903 421.202 68.7248 413.403C70.9674 410.684 73.81 408.063 76.3135 405.562L89.8442 392.057L132.442 349.441L194.184 287.685L213.857 268.001C217.747 264.105 221.999 259.642 226.058 256.004C224.609 254.892 221.934 252.079 220.583 250.728L210.571 240.678L180.12 210.172L107.626 137.716C95.4192 125.483 83.1219 113.282 70.9563 101.006C66.0786 96.0833 63.9501 91.2053 64.1728 84.154C64.3602 78.6595 66.7517 73.4719 70.808 69.761C75.5032 65.3816 80.0725 64.0173 86.4207 64.1609C95.6192 64.3689 99.9725 69.7105 105.979 75.7714L117.603 87.4483L158.173 128.007L223.228 193.063L245.122 214.968C248.461 218.305 252.938 222.454 256.012 225.845C257.75 223.792 261.949 219.881 264.045 217.794L280.736 201.13L335.889 145.954L387.836 94.0102L404.13 77.7143C410.933 70.9087 414.622 65.417 424.625 64.0884Z"/></svg>