<?xml version="1.0" encoding="utf-8" ?><svg xmlns="http://www.w3.org/2000/svg" xmlns:xlink="http://www.w3.org/1999/xlink" width="2048" height="2056" viewBox="0 0 2048 2056"><path fill="#104866" d="M1013.85 905.396C1079.09 837.963 1148.63 770.575 1215.1 704.183C1297.49 620.293 1380.33 536.849 1463.62 453.854L1654.06 262.38C1685.01 231.304 1715.72 199.788 1747.13 169.118C1767.87 147.441 1796.04 143.975 1824.08 144.349C1883.58 145.142 1926.03 202.191 1919.6 259.693C1917.18 281.331 1908.25 296.912 1894.1 313.343C1875.89 334.477 1855.52 353.599 1835.61 372.857L1764.59 442.58L1535.19 672.781L1259.67 946.648C1225.35 980.424 1192.5 1016.09 1156.89 1048.36C1162.6 1055.95 1182.16 1074.26 1189.7 1081.81L1269.14 1160.64L1698.43 1590.5C1743.55 1635.13 1788.36 1680.07 1832.85 1725.33C1853.32 1746.14 1875.37 1767.56 1894.6 1789.36C1905.62 1802.42 1911.98 1815.57 1915.04 1832.28C1921.99 1870.3 1911.84 1908.19 1879.49 1931.37C1863.79 1942.62 1849.99 1949.32 1831.25 1952.65C1807.21 1956.37 1780.42 1953.3 1760.74 1937.75C1735.22 1917.61 1712.66 1892.96 1689.88 1869.75L1577.77 1755.89C1439.25 1616.27 1300.03 1477.36 1160.1 1339.16C1131.1 1310.99 1102.36 1282.54 1073.88 1253.83C1055.11 1235.02 1033.79 1212.65 1013.71 1195.64C992.338 1213.29 963.163 1244.52 942.467 1265.14C896.705 1310.37 851.271 1355.94 806.169 1401.84L430.082 1778.35C395.539 1813.02 361.203 1847.89 327.077 1882.96C308.711 1901.5 288.874 1921.76 268.968 1938.52C256.481 1948.02 241.281 1951.25 226.284 1954.3C171.756 1965.4 120.539 1924.81 111.524 1871.25C109.446 1858.91 112.232 1835.85 113.583 1823.02C114.144 1817.7 122.334 1803.09 125.355 1798.03C145.515 1771.55 174.022 1745.3 197.742 1721.73L281.75 1636.93C388.657 1531.18 495.017 1424.87 600.826 1318.01C643.652 1275.59 686.21 1232.89 728.496 1189.91C759.409 1158.43 790.624 1127.24 822.135 1096.35C835.28 1083.33 857.959 1063.02 868.618 1048.55C791.56 975.708 714.351 896.077 639.419 820.76L384.601 566.323L224.782 406.023L171.808 353.325C146.566 328.152 117.024 302.285 110.594 265.348C99.8122 203.419 138.867 155.116 199.269 145C245.538 142.467 265.802 157.666 297.01 188.771C310.646 202.33 324.185 215.986 337.627 229.739L476.628 368.811L1013.85 905.396Z"/></svg>