<?xml version="1.0" encoding="utf-8" ?><svg xmlns="http://www.w3.org/2000/svg" xmlns:xlink="http://www.w3.org/1999/xlink" width="2048" height="2048" viewBox="0 0 2048 2048"><path fill="#3BB8F5" d="M495.964 1408.5L1426.14 1407.79L1688.77 1407.96L1767.05 1408.02C1790.2 1408.06 1805.12 1406.18 1827.5 1413.55C1866.1 1426.26 1886.1 1441.98 1905.39 1477.21C1955.92 1569.47 1874.73 1673.8 1774.88 1664.94C1764 1663.98 1745.21 1664.95 1733.34 1664.98L1553.25 1664.96L638.909 1665.36L373.596 1665.53L291.054 1665.47C275.832 1665.42 257.075 1665.62 242.337 1664.2C217.645 1661.82 183.233 1644.81 165.789 1627.38C144.354 1605.06 127.404 1568.41 127.329 1537.55C127.185 1478.6 169.066 1427.52 224.977 1411.65C239.885 1407.42 263.011 1408.54 278.884 1408.57L337.112 1408.67L495.964 1408.5Z"/><path fill="#3BB8F5" d="M237.707 896.463C273.682 895.238 313.629 896.087 349.779 896.132L540.542 896.191L1137.6 896.263L1581.26 896.552L1728.33 896.335C1785.69 896.256 1843.79 887.389 1886.08 936.357C1923 979.113 1934.17 1033.83 1904.91 1084.11C1882.88 1121.96 1852.16 1140.19 1810.46 1151.66C1790.51 1153.71 1746.51 1152.55 1725.06 1152.55L1560.12 1152.45L1060.68 1152.57L506.387 1152.6L328.736 1152.65L273.292 1152.62C266.5 1152.61 246.765 1152.97 241.073 1152.17C222.396 1148.36 199.877 1140.59 184.198 1129.39C132.463 1092.42 110.062 1023.37 142.006 965.877C163.765 926.718 193.464 904.699 237.707 896.463Z"/><path fill="#3BB8F5" d="M240.773 385.527C280.851 383.949 327.188 384.986 367.613 385.052L586.719 385.341L1240.18 385.06L1625.83 384.762L1749.21 384.72C1797.64 384.82 1833.84 377.801 1874.15 413.791C1930.31 463.933 1937.78 538.819 1888.69 596.762C1871.32 617.265 1832.95 638.534 1805.53 640.138C1702.74 642.267 1595.07 640.885 1491.86 641.081L777.416 640.604L413.013 640.716L299.598 640.781C251.423 640.797 215.255 645.076 174.792 611.441C135.057 578.41 114.603 521.497 133.243 471.877C150.689 425.434 190.073 389.366 240.773 385.527Z"/></svg>