<?xml version="1.0" encoding="utf-8" ?><svg xmlns="http://www.w3.org/2000/svg" xmlns:xlink="http://www.w3.org/1999/xlink" width="2048" height="2048" viewBox="0 0 2048 2048"><path fill="#114C6E" d="M240.893 895.411C282.774 894.379 327.27 895.254 369.317 895.418L563.095 895.629L1213.65 895.304L1609.4 895.196L1735.27 895.141C1757.64 895.135 1782.79 894.233 1804.25 895.67C1862.57 899.577 1909.4 948.694 1920.78 1004.55C1927.48 1037.44 1915.18 1071.73 1897.64 1098.9C1877.82 1129.6 1840.62 1147.11 1806.33 1154.18C1781.34 1156.41 1735.54 1155.29 1709.61 1155.38L1517.61 1155.44L942.787 1155.33L470.998 1155.06L318.068 1154.83C264.625 1154.61 223.653 1161.55 178.364 1126.73C85.3393 1055.2 125.08 911.179 240.893 895.411Z"/><path fill="#114C6E" d="M236.484 384.464C279.871 383.309 325.96 384.195 369.569 384.21L595.506 384.11L1250.39 384.282L1614.7 384.485L1735.73 384.192C1784.22 384.108 1828.73 377.989 1869.19 408.472C1896.67 429.174 1914.94 461.369 1921.11 494.88C1927.01 526.873 1914.63 561.797 1896.76 587.876C1879.93 612.661 1840.84 635.611 1811.71 640.389C1781.88 643.787 1743.27 642.03 1712.6 642.099L1541.45 642.455L989.221 643.362L472.139 642.964L319.038 642.804C262.131 642.748 218.839 650.494 173.214 610.412C146.284 586.754 130.214 556.588 126.705 520.992C120.639 459.476 174.243 389.539 236.484 384.464Z"/><path fill="#114C6E" d="M1151.32 1407.5L1595.48 1407.07L1727.19 1407.21C1749.67 1407.3 1776.39 1406.24 1798.14 1409.21C1859.74 1417.63 1904.87 1477.23 1905.37 1537.45C1906.22 1595.88 1857.81 1652.05 1801.39 1663.68C1783.25 1667.42 1736.74 1665.48 1717.07 1665.54L1540.39 1665.82L881.75 1665.87L418.141 1665.83L293.065 1665.74C276.072 1665.71 257.156 1666.02 240.325 1665.19C216.822 1664.03 184.279 1644.42 167.582 1628.39C142.202 1603.83 127.697 1570.15 127.301 1534.84C126.073 1468.75 184.669 1407.22 251.336 1408.03C276.438 1408.33 301.747 1407.99 326.882 1408.01L505.619 1407.96L1151.32 1407.5Z"/></svg>