<?xml version="1.0" encoding="utf-8" ?><svg xmlns="http://www.w3.org/2000/svg" xmlns:xlink="http://www.w3.org/1999/xlink" width="1024" height="1024" viewBox="0 0 1024 1024"><path fill="#202225" d="M0 0L1024 0L1024 1024L0 1024L0 0Z"/><path fill="#151515" d="M20.8743 1003.48C20.0761 996.846 20.496 980.677 20.4944 973.41L20.3479 920.187L20.4496 744.028L20.4695 183.764L20.2306 86.5205C20.0815 66.3332 19.8785 45.8639 20.295 25.665C20.3295 23.9922 20.6271 22.9802 21.4199 21.5498C24.2016 19.5157 54.5334 20.1303 60.3989 20.1199L113.523 20.1239L251.454 20.2797L825.977 20.1083L937.496 20.2567L976.71 20.2355C980.603 20.252 999.178 19.8164 1001.19 21.6598L1001.02 22.3466L1000.93 152.733L1000.9 193.866C1000.89 199.847 1000.62 210.527 1001.07 216.221C1003.18 194.08 999.309 29.4678 1002.26 23.6254C1003.08 24.5696 1003.42 25.3268 1003.43 26.6961C1003.52 35.851 1003.48 45.293 1003.5 54.4197L1003.55 116.681L1003.46 312.254L1003.57 795.389L1003.64 935.335C1003.61 957.654 1003.02 981.144 1003.36 1003.32C977.398 1003.69 951.434 1003.77 925.472 1003.56C877.761 1003.9 830.048 1003.93 782.337 1003.65L391.541 1003.48L143.747 1003.54L60.7799 1003.57C48.9554 1003.56 32.2343 1004.22 20.8743 1003.48Z"/><path fill="#313338" d="M20.8743 1003.48C20.0761 996.846 20.496 980.677 20.4944 973.41L20.3479 920.187L20.4496 744.028L20.4695 183.764L20.2306 86.5205C20.0815 66.3332 19.8785 45.8639 20.295 25.665C20.3295 23.9922 20.6271 22.9802 21.4199 21.5498C24.2016 19.5157 54.5334 20.1303 60.3989 20.1199L113.523 20.1239L251.454 20.2797L825.977 20.1083L937.496 20.2567L976.71 20.2355C980.603 20.252 999.178 19.8164 1001.19 21.6598L1001.02 22.3466C980.991 22.8781 960.189 22.5712 940.099 22.545L847.205 22.5349L558.569 22.5912L200.274 22.5477C141.684 22.5285 81.3405 23.255 22.8348 22.3778C22.0092 64.0669 22.7335 108.483 22.8327 150.219L22.8789 353.25L22.826 1001.18C58.5022 1002.02 96.2902 1001.46 132.1 1001.4L297.654 1001.4L751.699 1001.45C834.538 1001.44 918.584 1000.62 1001.29 1001.5L1001.07 216.221C1003.18 194.08 999.309 29.4678 1002.26 23.6254C1003.08 24.5696 1003.42 25.3268 1003.43 26.6961C1003.52 35.851 1003.48 45.293 1003.5 54.4197L1003.55 116.681L1003.46 312.254L1003.57 795.389L1003.64 935.335C1003.61 957.654 1003.02 981.144 1003.36 1003.32C977.398 1003.69 951.434 1003.77 925.472 1003.56C877.761 1003.9 830.048 1003.93 782.337 1003.65L391.541 1003.48L143.747 1003.54L60.7799 1003.57C48.9554 1003.56 32.2343 1004.22 20.8743 1003.48Z"/><path fill="#4873A1" d="M553.862 216.015L670.22 216.108L718.795 216.067C750.368 216.054 771.298 215.618 801.928 224.853C842.435 237.065 875.256 262.065 894.601 300.339C918.902 348.418 922.354 417.309 906.037 468.56C893.046 509.365 867.886 541.929 829.692 561.667C833.226 571.186 838.128 581.78 842.174 591.195L863.319 640.517L936.372 807.587C917.314 808.097 897.007 807.678 877.843 807.619C855.381 807.603 832.918 807.735 810.458 808.015L806.982 798.852C796.576 772.425 786.313 745.941 776.194 719.403L723.889 585.53L666.175 585.621L666.145 674.705C666.466 719.104 666.499 763.505 666.244 807.904C629.313 807.537 590.631 807.206 553.804 807.672L553.862 216.015Z"/><path fill="#151515" d="M666.045 322.455L706.861 322.418C723.13 322.366 742.954 321.068 758.526 325.447C801.045 337.404 807.501 386.415 801.09 423.666C798.503 438.698 793.072 450.229 782.807 461.028L782.361 461.478C762.066 481.631 733.931 479.729 707.781 479.789L666.027 479.907C666.334 427.424 666.34 374.938 666.045 322.455Z"/><path fill="#4873A1" d="M87.4289 215.982L199.077 216.051C210.758 240.548 223.367 263.795 235.371 287.903L377.441 570.439L377.379 216.061L490.126 216.122C490.888 241.986 490.224 270.996 490.195 297.072L490.069 444.765L490.167 807.857L474.875 807.797C444.864 807.644 414.853 807.648 384.843 807.808C380.317 799.412 376.134 790.195 371.813 781.619L336.341 711.042L200.036 438.534C199.626 451.865 200.004 466.674 200.019 480.152L200.03 557.194L200.038 807.589C162.852 807.7 124.504 807.273 87.4303 807.948C87.1281 786.191 87.4831 763.795 87.4487 741.971L87.3675 589.873L87.4289 215.982Z"/></svg>